<svg width="34" height="14" viewBox="0 0 34 14" fill="none" xmlns="http://www.w3.org/2000/svg">
<path d="M33.1365 5.8636C32.9618 6.22891 32.8714 6.6315 32.8714 7.03872C32.8714 7.44591 32.9618 7.84849 33.1365 8.21377C33.4816 8.94174 33.5851 9.77608 33.4277 10.5779L33.4277 10.5779L33.4263 10.5853C33.3033 11.2656 32.9954 11.888 32.5456 12.3757C32.0962 12.8631 31.5258 13.1938 30.9081 13.332L30.9081 13.332L30.9009 13.3337C30.4087 13.4515 29.8982 13.4472 29.4077 13.321C28.9172 13.1947 28.4576 12.9493 28.0653 12.6009L28.0654 12.6008L28.0565 12.5932C26.8458 11.5679 25.333 11.0208 23.7778 11.053H10.2222C8.66696 11.0208 7.15416 11.5679 5.94355 12.5932L5.94346 12.5931L5.93467 12.6009C5.54239 12.9493 5.08284 13.1947 4.59227 13.321C4.10183 13.4472 3.59127 13.4515 3.09912 13.3337L3.09914 13.3336L3.09185 13.332C2.47421 13.1938 1.90384 12.8631 1.45438 12.3757C1.0046 11.888 0.69666 11.2656 0.573674 10.5853L0.573729 10.5853L0.572285 10.5779C0.414882 9.77605 0.518407 8.94169 0.863545 8.21371C1.03826 7.84843 1.12863 7.44588 1.12863 7.03872C1.12863 6.63124 1.03811 6.22837 0.863126 5.86286L0.412146 6.07877L0.863695 5.86405C0.517693 5.13641 0.414044 4.30179 0.572197 3.49998L0.572262 3.49999L0.573705 3.49199C0.696329 2.81227 1.00414 2.19058 1.45385 1.70381C1.90324 1.21738 2.47351 0.887884 3.09073 0.751283L3.09075 0.751355L3.09912 0.74935C3.59127 0.631503 4.10183 0.635827 4.59227 0.762051C5.08284 0.88831 5.54239 1.13378 5.93467 1.48215L5.93457 1.48226L5.94394 1.49019C7.15509 2.51374 8.66795 3.05881 10.2226 3.02444H23.7774C25.332 3.05881 26.8449 2.51374 28.0561 1.49019L28.0562 1.4903L28.0653 1.48215C28.4576 1.13378 28.9172 0.88831 29.4077 0.762051C29.8982 0.635827 30.4087 0.631503 30.9009 0.74935L30.9009 0.749422L30.9093 0.751283C31.5265 0.887884 32.0968 1.21738 32.5462 1.70381C32.9959 2.19058 33.3037 2.81228 33.4263 3.49199L33.4262 3.492L33.4278 3.49998C33.5859 4.30162 33.4823 5.13607 33.1365 5.8636ZM33.1365 5.8636C33.1366 5.86336 33.1368 5.8631 33.1369 5.86286L33.5879 6.07877L33.1363 5.86405C33.1364 5.8639 33.1364 5.86375 33.1365 5.8636Z" stroke="#DDCA69"/>
</svg>
