<svg width="34" height="14" viewBox="0 0 34 14" fill="none" xmlns="http://www.w3.org/2000/svg">
<path d="M33.5879 6.07877C33.9805 5.25313 34.097 4.3092 33.9184 3.40322C33.7793 2.6327 33.4297 1.92333 32.9134 1.36452C32.3971 0.805703 31.7374 0.422462 31.0173 0.263096C30.4458 0.126247 29.8525 0.131289 29.2831 0.277831C28.7137 0.424374 28.1835 0.708501 27.7333 1.1083C26.6112 2.05659 25.2142 2.55742 23.7831 2.52444H10.2169C8.78582 2.55742 7.38878 2.05659 6.26668 1.1083C5.81651 0.708501 5.28628 0.424374 4.71689 0.277831C4.14751 0.131289 3.55419 0.126247 2.98269 0.263096C2.26261 0.422462 1.60285 0.805703 1.08659 1.36452C0.570324 1.92333 0.220653 2.6327 0.0816483 3.40322C-0.0970523 4.3092 0.0195463 5.25313 0.412146 6.07877C0.554439 6.37599 0.628633 6.70497 0.628633 7.03872C0.628633 7.37247 0.554439 7.70146 0.412146 7.99867C0.0203593 8.82458 -0.0962019 9.7682 0.0816483 10.6742C0.221014 11.4452 0.5707 12.155 1.08682 12.7146C1.60293 13.2743 2.26249 13.6588 2.98269 13.8199C3.55419 13.9568 4.14751 13.9517 4.71689 13.8052C5.28628 13.6587 5.81651 13.3745 6.26668 12.9747C7.38828 12.0249 8.78524 11.5221 10.2169 11.553H23.7831C25.2148 11.5221 26.6117 12.0249 27.7333 12.9747C28.1835 13.3745 28.7137 13.6587 29.2831 13.8052C29.8525 13.9517 30.4458 13.9568 31.0173 13.8199C31.7375 13.6588 32.3971 13.2743 32.9132 12.7146C33.4293 12.155 33.779 11.4452 33.9184 10.6742C34.0962 9.7682 33.9796 8.82458 33.5879 7.99867C33.4456 7.70146 33.3714 7.37247 33.3714 7.03872C33.3714 6.70497 33.4456 6.37599 33.5879 6.07877Z" fill="#DDCA69"/>
</svg>
