<svg width="107" height="75" viewBox="0 0 107 75" fill="none" xmlns="http://www.w3.org/2000/svg">
<path d="M74.8759 46.3167C72.3759 45.9097 69.903 47.2566 68.8582 49.5922C68.6557 50.0453 68.5179 50.5148 68.4387 50.9893C71.0188 49.7162 73.2739 48.1815 75.2207 46.3728L74.8759 46.3167Z" fill="#124C5F"/>
<path d="M77.1953 23.6913C81.8826 20.6027 83.2102 14.2514 80.1605 9.50512C77.1108 4.75889 70.8388 3.41508 66.1514 6.50363C61.4641 9.59218 60.1366 15.9435 63.1862 20.6898C66.2359 25.436 72.508 26.7798 77.1953 23.6913Z" fill="#124C5F"/>
<path d="M95.7812 26.2799C91.4019 20.7887 85.4541 20.7258 82.1686 22.9656C78.8841 25.2042 79.124 30.8919 81.8671 34.7107C81.9917 34.9213 82.1241 35.1405 82.2537 35.3575C83.199 32.453 83.3322 30.3449 83.3335 30.3157C83.4299 27.8516 85.4036 25.928 87.828 25.928C87.8843 25.928 87.9405 25.9289 87.9968 25.9312C90.4769 26.0233 92.4206 28.1415 92.3292 30.6535V30.6612L92.3265 30.7018C92.2527 32.1084 91.7773 37.1648 88.7624 43.1739C88.4879 43.7254 88.1642 44.3298 87.7929 44.9698C88.4249 46.1923 89.0325 47.4412 89.5866 48.7098L85.7475 48.0853C83.1508 51.6078 79.1785 55.604 73.2626 58.735L90.4261 73.1215C91.4758 74.0017 92.7469 74.4306 94.0108 74.4306C95.629 74.4306 97.235 73.7268 98.3482 72.3662C100.329 69.9417 99.9952 66.3503 97.6014 64.3443L93.4743 60.8833L94.8093 61.1011C95.223 61.1681 95.6322 61.1846 96.0341 61.1609C97.0037 61.2078 98.1438 60.8646 99.546 60.37C103.441 58.9953 107.857 56.5717 106.709 49.1861C104.392 39.2648 101.757 33.8665 95.7812 26.2799Z" fill="#124C5F"/>
<path d="M87.9605 42.76C91.2013 36.301 91.4106 30.9552 91.43 30.6193C91.5029 28.6064 89.9522 26.9153 87.9645 26.8419C85.9799 26.7672 84.3122 28.3338 84.2344 30.3421L84.2339 30.3417C84.2281 30.5737 83.9278 34.9701 81.2978 39.9243C78.6398 44.8859 73.8614 50.4606 64.1878 53.7219C62.2991 54.3528 61.2729 56.4144 61.8972 58.3275C62.3964 59.86 63.8043 60.8318 65.3163 60.8318C65.6903 60.8318 66.0707 60.772 66.4452 60.6472C78.2725 56.7276 84.7502 49.2098 87.9605 42.76Z" fill="#124C5F"/>
<path d="M40.5335 60.1042C42.1701 60.4188 44.1398 60.9384 44.6606 61.4968C46.0628 62.995 46.7478 66.0896 48.5659 66.3065C49.8361 66.4579 50.2822 66.4301 51.8558 65.4017C53.4092 64.3844 51.9341 60.4233 51.5632 58.9013C51.0375 56.7417 52.2911 54.3696 52.3104 54.2246C52.3262 54.1043 53.406 51.8111 56.5276 52.6817C57.6178 52.988 56.9795 50.9473 55.2722 49.9277C53.2422 48.717 51.7734 49.2813 50.2894 50.4601C47.4239 48.2393 42.9349 48.6728 40.3827 49.64C39.9749 51.3234 39.8169 52.952 39.8169 54.4503C39.8155 56.728 40.1756 58.7031 40.5335 60.1042ZM47.8092 55.3131C48.4763 54.8523 49.3864 55.0269 49.842 55.7024C50.2966 56.3784 50.1242 57.3005 49.4571 57.7604C48.7882 58.2213 47.879 58.0471 47.4235 57.3712C46.9693 56.6956 47.1408 55.7735 47.8092 55.3131Z" fill="#124C5F"/>
<path d="M38.5431 49.5885C37.8787 49.598 37.2459 49.5784 36.6423 49.531C36.4307 49.4777 36.2119 49.4444 35.9828 49.4563C35.9689 49.4572 35.9563 49.4617 35.9423 49.4627C26.7603 48.4065 24.2608 41.3728 13.5336 48.6723C10.2936 47.7082 6.43069 45.6356 3.50491 41.2128C2.91345 40.3235 1.72289 40.0906 0.847403 40.6895C-0.0325804 41.2871 -0.264842 42.4918 0.328866 43.3816C3.11195 47.5459 6.55132 49.9855 9.77868 51.4145C9.74087 51.4947 9.70125 51.59 9.66164 51.6811C8.83432 52.9415 8.1866 54.602 7.76529 56.815C7.70633 57.1382 5.07943 74.1146 9.20522 74.1146C13.331 74.1146 14.464 61.2724 16.7677 59.6283C17.0922 59.6575 23.2125 66.1515 28.4402 65.3351C29.665 65.1428 31.3232 64.377 32.7051 63.5625L34.9665 72.7299C35.2203 73.7586 36.1282 74.4565 37.1464 74.4565C37.2576 74.4565 37.3706 74.4483 37.4835 74.431C38.6318 74.2564 39.4587 73.2326 39.3979 72.058L38.8109 60.6434C38.4157 59.1205 38.0169 56.9672 38.0151 54.4502C38.0156 52.9374 38.1628 51.2955 38.5431 49.5885Z" fill="#124C5F"/>
<path d="M58.6261 72.0083H58.058L56.8985 68.37H43.9085L42.749 72.0083H42.1801C41.7228 72.0083 41.351 72.3844 41.351 72.8484C41.351 73.312 41.7228 73.688 42.1801 73.688H58.6261C59.0834 73.688 59.4552 73.312 59.4552 72.8484C59.4552 72.3844 59.083 72.0083 58.6261 72.0083Z" fill="#124C5F"/>
</svg>
