<svg width="30" height="30" viewBox="0 0 30 30" fill="none" xmlns="http://www.w3.org/2000/svg">
<g clip-path="url(#clip0_27_1487)">
<path d="M18.6319 7.36726C18.673 7.32103 18.8649 7.16997 19.6187 7.16997L22.0902 7.16905C22.8942 7.16905 23.5481 6.51628 23.5481 5.71382V1.40259C23.5481 0.601503 22.8952 -0.0512695 22.0925 -0.0526428L18.4214 -0.0585938C16.1556 -0.0585938 14.2295 0.687334 12.8512 2.09885C11.4791 3.50396 10.7538 5.46548 10.7538 7.77101V10.0962H7.94538C7.14135 10.0962 6.4873 10.749 6.4873 11.5515V16.1946C6.4873 16.997 7.14135 17.6498 7.94538 17.6498H10.7538V28.4862C10.7538 29.2887 11.4078 29.9415 12.2118 29.9415H17.0255C17.8295 29.9415 18.4835 29.2887 18.4835 28.4862V17.65H21.9164C22.7204 17.65 23.3742 16.997 23.3742 16.195L23.3761 11.5517C23.3761 11.0246 23.0887 10.5368 22.6259 10.2789C22.4115 10.1594 22.162 10.0962 21.9047 10.0962H18.4835V8.25922C18.4835 7.66046 18.5643 7.44371 18.6319 7.36726Z" fill="#5B5B5B"/>
</g>
<defs>
<clipPath id="clip0_27_1487">
<rect width="30" height="30" fill="white"/>
</clipPath>
</defs>
</svg>
