<svg width="73" height="48" viewBox="0 0 73 48" fill="none" xmlns="http://www.w3.org/2000/svg">
<path d="M68.894 20.2717C68.8146 17.2835 65.5277 14.5428 59.5944 12.5021C59.9999 11.682 60.2167 10.7925 60.2167 9.88054C60.2167 6.34622 57.0647 3.47226 53.1911 3.47226C52.3181 3.47226 51.4665 3.61956 50.6523 3.91084C49.3481 2.45607 47.1949 1.56814 44.9052 1.56814C43.8675 1.56814 42.8364 1.7502 41.8988 2.09775C40.2678 0.760487 38.0409 0 35.7197 0C32.5909 0 29.7509 1.3414 28.196 3.52687C24.5176 3.12884 21.2283 4.78635 19.9729 7.39303C16.8888 7.44765 14.3566 9.54623 13.9693 12.2423C7.54115 14.3094 3.9729 17.147 3.88933 20.27L0.0198605 35.4152L0 35.5733C0 42.5476 15.9851 48.01 36.3925 48.01C56.7991 48.01 72.785 42.5467 72.785 35.5733L68.894 20.2717ZM20.0954 8.67237C20.1475 8.67237 20.2005 8.67568 20.2526 8.67899L20.8211 8.70547L20.9858 8.27351C21.7753 6.20058 24.3224 4.75243 27.1789 4.75243C27.5811 4.75243 27.9957 4.7847 28.4128 4.84594L28.8274 4.90634L29.0491 4.55134C30.3103 2.53385 32.8656 1.28017 35.7189 1.28017C37.8746 1.28017 39.926 2.01997 41.3435 3.31006L41.6489 3.58728L42.0271 3.42426C42.9034 3.04691 43.8972 2.84748 44.9043 2.84748C46.9938 2.84748 48.9236 3.69486 49.9406 5.05861L50.241 5.46326L50.7052 5.26383C51.4938 4.92372 52.3296 4.7516 53.1911 4.7516C56.3605 4.7516 58.9365 7.05292 58.9365 9.88054C58.9365 10.8082 58.6452 11.7044 58.1156 12.4963L58.114 12.498C58.1123 12.4996 58.1107 12.5021 58.109 12.5046C58.0685 12.5642 58.0378 12.6271 57.9956 12.6858L57.965 12.7272L57.3477 13.5522L57.3593 13.5531L58.4243 13.6987C60.9275 14.0413 62.7448 15.2379 62.7448 16.5437C62.7448 17.329 62.0869 17.9323 61.5697 18.2856C61.4869 18.3419 61.4083 18.3932 61.3355 18.4371L60.2978 19.0602L61.3967 19.5658C62.5213 20.083 63.1924 20.9204 63.1924 21.8075C63.1924 23.1299 60.6081 24.5284 58.1661 24.5284H58.061L57.9609 24.5623C56.847 24.9397 55.6935 25.2707 54.5168 25.5785C49.5177 26.881 43.9709 27.5521 37.9515 27.5521C27.6548 27.5521 18.8285 25.5934 15.8238 24.842C15.1311 24.6691 14.748 24.5607 14.729 24.5549L14.5519 24.5301C11.8161 24.5301 9.59174 22.5556 9.59174 20.1293C9.59174 17.7031 11.8161 15.7294 14.5519 15.7294C14.7232 15.7294 14.8928 15.7369 15.0583 15.7526L16.2516 15.8569L15.6748 14.8067C15.3537 14.2217 15.1907 13.6002 15.1907 12.9614C15.1907 12.9233 15.194 12.8869 15.1965 12.8497L15.2164 12.5187C15.4712 10.3605 17.5624 8.67237 20.0954 8.67237ZM13.9519 13.5911C13.9552 13.6176 13.9619 13.6449 13.966 13.6722C13.9718 13.7144 13.9809 13.7558 13.9875 13.798C14.0247 14.019 14.0736 14.2374 14.1406 14.4526C14.1414 14.4551 14.1414 14.4584 14.1423 14.4608C10.8918 14.6537 8.3124 17.1221 8.3124 20.1293C8.3124 23.2333 11.0631 25.7655 14.4625 25.8086C14.6181 25.8516 14.9797 25.9492 15.5151 26.0833C18.586 26.8512 27.5257 28.8307 37.9524 28.8307C37.954 28.8307 37.954 28.8307 37.9557 28.8307C45.4861 28.8307 52.3205 27.8136 58.2753 25.8086C61.2238 25.768 64.4734 24.0708 64.4734 21.8092C64.4734 21.5311 64.4362 21.2589 64.3634 20.9941C64.1466 20.2005 63.6153 19.4806 62.8325 18.9236C63.6087 18.2335 64.0249 17.4126 64.0249 16.5445C64.0249 16.4825 64.0166 16.4212 64.0117 16.3592C64.0084 16.307 64.0084 16.2557 64.0017 16.2061C63.9935 16.1457 63.9794 16.0869 63.9678 16.0282C63.9562 15.9719 63.9471 15.9164 63.9322 15.8602C63.9289 15.8469 63.9273 15.8337 63.924 15.8196C66.3196 17.2372 67.6238 18.8094 67.6238 20.3817C67.6238 25.1524 55.0737 30.259 36.3917 30.259C17.7097 30.259 5.16039 25.1524 5.16039 20.3817C5.16039 17.9108 8.35129 15.4563 13.9519 13.5911ZM36.3917 46.7323C17.4399 46.7323 1.41588 41.6654 1.27934 35.6494L4.57947 22.7344C7.64542 27.8236 20.5191 31.5391 36.3917 31.5391C52.2626 31.5391 65.1379 27.8236 68.2022 22.7327L71.504 35.6486C71.3675 41.6654 55.3435 46.7323 36.3917 46.7323Z" fill="#124C5F"/>
<path d="M47.5971 36.304C47.5971 34.6117 46.2218 33.238 44.5295 33.238C42.8918 33.238 41.5488 34.5298 41.4685 36.1492H31.3157C31.2346 34.5298 29.8916 33.238 28.2531 33.238C26.5625 33.238 25.1871 34.6117 25.1871 36.304C25.1871 37.2912 25.6547 38.1692 26.3804 38.7303C25.6547 39.2913 25.1871 40.1701 25.1871 41.1565C25.1871 42.8488 26.5625 44.2241 28.2531 44.2241C29.8916 44.2241 31.2355 42.9307 31.3157 41.3113H41.4685C41.5496 42.9307 42.8927 44.2241 44.5295 44.2241C46.2218 44.2241 47.5971 42.8488 47.5971 41.1565C47.5971 40.171 47.1287 39.2913 46.4046 38.7303C47.1287 38.1692 47.5971 37.292 47.5971 36.304ZM46.3186 41.1565C46.3186 42.1421 45.5151 42.944 44.5295 42.944C43.5456 42.944 42.7437 42.1421 42.7437 41.1565C42.7437 41.0382 42.757 40.919 42.781 40.8007L42.9365 40.0328H29.8477L30.0033 40.8007C30.0273 40.919 30.0397 41.0382 30.0397 41.1565C30.0397 42.1421 29.2378 42.944 28.2523 42.944C27.2675 42.944 26.4656 42.1421 26.4656 41.1565C26.4656 40.1726 27.2675 39.3708 28.2523 39.3708V38.0906C27.2675 38.0906 26.4656 37.2887 26.4656 36.3048C26.4656 35.3192 27.2675 34.5174 28.2523 34.5174C29.2378 34.5174 30.0397 35.3192 30.0397 36.3048C30.0397 36.4248 30.0273 36.544 30.0033 36.6623L29.8477 37.4302H42.9357L42.7801 36.6623C42.7561 36.5423 42.7429 36.4231 42.7429 36.3048C42.7429 35.3192 43.5448 34.5174 44.5287 34.5174C45.5142 34.5174 46.3178 35.3192 46.3178 36.3048C46.3178 37.2887 45.5142 38.0906 44.5287 38.0906V39.3708C45.5151 39.3699 46.3186 40.1718 46.3186 41.1565Z" fill="#124C5F"/>
</svg>
