<svg width="92" height="136" viewBox="0 0 92 136" fill="none" xmlns="http://www.w3.org/2000/svg">
<path d="M6.84 130.428C5.09333 130.428 3.73333 129.955 2.76 129.008C1.8 128.048 1.28667 126.741 1.22 125.088C1.20667 124.688 1.2 124.061 1.2 123.208C1.2 122.341 1.20667 121.715 1.22 121.328C1.28667 119.688 1.80667 118.395 2.78 117.448C3.75333 116.501 5.10667 116.028 6.84 116.028C8.01333 116.028 9.00667 116.241 9.82 116.668C10.6467 117.081 11.2667 117.588 11.68 118.188C12.0933 118.788 12.3133 119.348 12.34 119.868V119.908C12.34 120.015 12.3 120.101 12.22 120.168C12.14 120.235 12.04 120.268 11.92 120.268H10.74C10.6067 120.268 10.5067 120.248 10.44 120.208C10.3867 120.155 10.3333 120.055 10.28 119.908C10.08 119.308 9.69333 118.795 9.12 118.368C8.56 117.941 7.8 117.728 6.84 117.728C5.73333 117.728 4.86667 118.028 4.24 118.628C3.61333 119.228 3.27333 120.161 3.22 121.428C3.20667 121.815 3.2 122.408 3.2 123.208C3.2 123.995 3.20667 124.588 3.22 124.988C3.27333 126.268 3.61333 127.215 4.24 127.828C4.86667 128.428 5.73333 128.728 6.84 128.728C7.96 128.728 8.85333 128.421 9.52 127.808C10.1867 127.195 10.52 126.275 10.52 125.048V124.208H7.52C7.38667 124.208 7.27333 124.168 7.18 124.088C7.1 123.995 7.06 123.875 7.06 123.728V123.088C7.06 122.955 7.1 122.841 7.18 122.748C7.27333 122.655 7.38667 122.608 7.52 122.608H12.04C12.1733 122.608 12.28 122.655 12.36 122.748C12.4533 122.828 12.5 122.941 12.5 123.088V125.008C12.5 126.101 12.2733 127.055 11.82 127.868C11.3667 128.681 10.7133 129.315 9.86 129.768C9.00667 130.208 8 130.428 6.84 130.428ZM15.5533 130.228C15.4199 130.228 15.3066 130.188 15.2133 130.108C15.1333 130.015 15.0933 129.901 15.0933 129.768V120.308C15.0933 120.175 15.1333 120.061 15.2133 119.968C15.3066 119.875 15.4199 119.828 15.5533 119.828H16.4733C16.6066 119.828 16.7199 119.875 16.8133 119.968C16.9066 120.061 16.9533 120.175 16.9533 120.308V121.188C17.4999 120.281 18.4333 119.828 19.7533 119.828H20.5333C20.6666 119.828 20.7733 119.875 20.8533 119.968C20.9466 120.048 20.9933 120.155 20.9933 120.288V121.108C20.9933 121.241 20.9466 121.348 20.8533 121.428C20.7733 121.508 20.6666 121.548 20.5333 121.548H19.3333C18.6133 121.548 18.0466 121.761 17.6333 122.188C17.2199 122.601 17.0133 123.168 17.0133 123.888V129.768C17.0133 129.901 16.9666 130.015 16.8733 130.108C16.7799 130.188 16.6666 130.228 16.5333 130.228H15.5533ZM26.7556 130.428C25.289 130.428 24.149 130.015 23.3356 129.188C22.5356 128.361 22.109 127.261 22.0556 125.888L22.0356 125.028L22.0556 124.168C22.109 122.808 22.5423 121.715 23.3556 120.888C24.169 120.048 25.3023 119.628 26.7556 119.628C28.209 119.628 29.3423 120.048 30.1556 120.888C30.969 121.715 31.4023 122.808 31.4556 124.168C31.469 124.315 31.4756 124.601 31.4756 125.028C31.4756 125.455 31.469 125.741 31.4556 125.888C31.4023 127.261 30.969 128.361 30.1556 129.188C29.3556 130.015 28.2223 130.428 26.7556 130.428ZM26.7556 128.888C27.5956 128.888 28.2556 128.621 28.7356 128.088C29.229 127.555 29.4956 126.788 29.5356 125.788C29.549 125.655 29.5556 125.401 29.5556 125.028C29.5556 124.655 29.549 124.401 29.5356 124.268C29.4956 123.268 29.229 122.501 28.7356 121.968C28.2556 121.435 27.5956 121.168 26.7556 121.168C25.9156 121.168 25.249 121.435 24.7556 121.968C24.2623 122.501 24.0023 123.268 23.9756 124.268L23.9556 125.028L23.9756 125.788C24.0023 126.788 24.2623 127.555 24.7556 128.088C25.249 128.621 25.9156 128.888 26.7556 128.888ZM38.24 130.428C36.7733 130.428 35.6333 130.015 34.82 129.188C34.02 128.361 33.5933 127.261 33.54 125.888L33.52 125.028L33.54 124.168C33.5933 122.808 34.0267 121.715 34.84 120.888C35.6533 120.048 36.7867 119.628 38.24 119.628C39.6933 119.628 40.8267 120.048 41.64 120.888C42.4533 121.715 42.8867 122.808 42.94 124.168C42.9533 124.315 42.96 124.601 42.96 125.028C42.96 125.455 42.9533 125.741 42.94 125.888C42.8867 127.261 42.4533 128.361 41.64 129.188C40.84 130.015 39.7067 130.428 38.24 130.428ZM38.24 128.888C39.08 128.888 39.74 128.621 40.22 128.088C40.7133 127.555 40.98 126.788 41.02 125.788C41.0333 125.655 41.04 125.401 41.04 125.028C41.04 124.655 41.0333 124.401 41.02 124.268C40.98 123.268 40.7133 122.501 40.22 121.968C39.74 121.435 39.08 121.168 38.24 121.168C37.4 121.168 36.7333 121.435 36.24 121.968C35.7467 122.501 35.4867 123.268 35.46 124.268L35.44 125.028L35.46 125.788C35.4867 126.788 35.7467 127.555 36.24 128.088C36.7333 128.621 37.4 128.888 38.24 128.888ZM45.9244 130.228C45.791 130.228 45.6777 130.188 45.5844 130.108C45.5044 130.015 45.4644 129.901 45.4644 129.768V120.288C45.4644 120.155 45.5044 120.048 45.5844 119.968C45.6777 119.875 45.791 119.828 45.9244 119.828H46.8244C46.9577 119.828 47.0644 119.875 47.1444 119.968C47.2377 120.048 47.2844 120.155 47.2844 120.288V120.988C47.9777 120.081 48.9444 119.628 50.1844 119.628C51.6644 119.628 52.711 120.241 53.3244 121.468C53.6444 120.908 54.0977 120.461 54.6844 120.128C55.271 119.795 55.931 119.628 56.6644 119.628C57.7577 119.628 58.651 120.001 59.3444 120.748C60.0377 121.495 60.3844 122.575 60.3844 123.988V129.768C60.3844 129.901 60.3377 130.015 60.2444 130.108C60.1644 130.188 60.0577 130.228 59.9244 130.228H58.9844C58.851 130.228 58.7377 130.188 58.6444 130.108C58.5644 130.015 58.5244 129.901 58.5244 129.768V124.168C58.5244 123.128 58.3044 122.381 57.8644 121.928C57.4377 121.475 56.871 121.248 56.1644 121.248C55.5377 121.248 54.9977 121.481 54.5444 121.948C54.091 122.401 53.8644 123.141 53.8644 124.168V129.768C53.8644 129.901 53.8177 130.015 53.7244 130.108C53.6444 130.188 53.5377 130.228 53.4044 130.228H52.4644C52.331 130.228 52.2177 130.188 52.1244 130.108C52.0444 130.015 52.0044 129.901 52.0044 129.768V124.168C52.0044 123.128 51.7777 122.381 51.3244 121.928C50.8844 121.475 50.3244 121.248 49.6444 121.248C49.0177 121.248 48.4777 121.481 48.0244 121.948C47.571 122.401 47.3444 123.135 47.3444 124.148V129.768C47.3444 129.901 47.2977 130.015 47.2044 130.108C47.1244 130.188 47.0177 130.228 46.8844 130.228H45.9244ZM63.5378 117.888C63.4045 117.888 63.2911 117.848 63.1978 117.768C63.1178 117.675 63.0778 117.561 63.0778 117.428V116.348C63.0778 116.215 63.1178 116.101 63.1978 116.008C63.2911 115.915 63.4045 115.868 63.5378 115.868H64.7978C64.9311 115.868 65.0445 115.915 65.1378 116.008C65.2311 116.101 65.2778 116.215 65.2778 116.348V117.428C65.2778 117.561 65.2311 117.675 65.1378 117.768C65.0445 117.848 64.9311 117.888 64.7978 117.888H63.5378ZM63.6978 130.228C63.5645 130.228 63.4511 130.188 63.3578 130.108C63.2778 130.015 63.2378 129.901 63.2378 129.768V120.288C63.2378 120.155 63.2778 120.048 63.3578 119.968C63.4511 119.875 63.5645 119.828 63.6978 119.828H64.6578C64.7911 119.828 64.8978 119.875 64.9778 119.968C65.0711 120.048 65.1178 120.155 65.1178 120.288V129.768C65.1178 129.901 65.0711 130.015 64.9778 130.108C64.8978 130.188 64.7911 130.228 64.6578 130.228H63.6978ZM68.5416 130.228C68.4082 130.228 68.2949 130.188 68.2016 130.108C68.1216 130.015 68.0816 129.901 68.0816 129.768V120.288C68.0816 120.155 68.1216 120.048 68.2016 119.968C68.2949 119.875 68.4082 119.828 68.5416 119.828H69.4816C69.6149 119.828 69.7216 119.875 69.8016 119.968C69.8949 120.048 69.9416 120.155 69.9416 120.288V121.168C70.3282 120.675 70.7816 120.295 71.3016 120.028C71.8349 119.761 72.4949 119.628 73.2816 119.628C74.5616 119.628 75.5549 120.041 76.2616 120.868C76.9816 121.681 77.3416 122.768 77.3416 124.128V129.768C77.3416 129.901 77.2949 130.015 77.2016 130.108C77.1216 130.188 77.0149 130.228 76.8816 130.228H75.8816C75.7482 130.228 75.6349 130.188 75.5416 130.108C75.4616 130.015 75.4216 129.901 75.4216 129.768V124.228C75.4216 123.281 75.1882 122.548 74.7216 122.028C74.2682 121.508 73.6082 121.248 72.7416 121.248C71.9016 121.248 71.2349 121.515 70.7416 122.048C70.2482 122.568 70.0016 123.295 70.0016 124.228V129.768C70.0016 129.901 69.9549 130.015 69.8616 130.108C69.7816 130.188 69.6749 130.228 69.5416 130.228H68.5416ZM84.4705 134.628C83.3771 134.628 82.4971 134.441 81.8305 134.068C81.1638 133.708 80.6905 133.295 80.4105 132.828C80.1305 132.361 79.9771 131.941 79.9505 131.568C79.9371 131.435 79.9771 131.321 80.0705 131.228C80.1771 131.135 80.2905 131.088 80.4105 131.088H81.3705C81.4905 131.088 81.5905 131.115 81.6705 131.168C81.7505 131.235 81.8171 131.348 81.8705 131.508C82.0305 131.935 82.2905 132.301 82.6505 132.608C83.0238 132.928 83.5971 133.088 84.3705 133.088C85.3571 133.088 86.0838 132.875 86.5505 132.448C87.0171 132.035 87.2505 131.295 87.2505 130.228V128.868C86.9038 129.308 86.4638 129.661 85.9305 129.928C85.3971 130.181 84.7638 130.308 84.0305 130.308C82.6171 130.308 81.5571 129.861 80.8505 128.968C80.1571 128.061 79.7905 126.915 79.7505 125.528L79.7305 124.968L79.7505 124.428C79.7905 123.055 80.1638 121.915 80.8705 121.008C81.5771 120.088 82.6305 119.628 84.0305 119.628C85.4305 119.628 86.5238 120.141 87.3105 121.168V120.308C87.3105 120.175 87.3505 120.061 87.4305 119.968C87.5238 119.875 87.6371 119.828 87.7705 119.828H88.6905C88.8238 119.828 88.9371 119.875 89.0305 119.968C89.1238 120.061 89.1705 120.175 89.1705 120.308V130.008C89.1705 133.088 87.6038 134.628 84.4705 134.628ZM84.4305 128.708C85.3371 128.708 86.0238 128.408 86.4905 127.808C86.9571 127.208 87.2105 126.495 87.2505 125.668C87.2638 125.548 87.2705 125.315 87.2705 124.968C87.2705 124.635 87.2638 124.408 87.2505 124.288C87.2105 123.461 86.9571 122.748 86.4905 122.148C86.0371 121.548 85.3505 121.248 84.4305 121.248C83.4838 121.248 82.7971 121.541 82.3705 122.128C81.9438 122.715 81.7105 123.488 81.6705 124.448L81.6505 124.968L81.6705 125.508C81.7105 126.455 81.9438 127.228 82.3705 127.828C82.7971 128.415 83.4838 128.708 84.4305 128.708Z" fill="black"/>
<path d="M61.8032 28.2852C61.5756 27.1977 60.9536 26.3809 60.0984 26.0436C60.0372 26.0195 59.9731 26.0167 59.9111 25.9978C60.5239 22.9628 62.2522 11.9293 56.59 5.47231C53.3083 1.7303 48.1874 0.24933 41.3775 1.0661C41.2523 1.01104 41.1164 0.978919 40.9754 0.97433C35.6262 0.786197 31.5328 2.39164 28.8492 5.7396C23.5916 12.2968 25.4953 23.3614 26.0435 25.9841C25.9629 26.0067 25.88 26.0123 25.8008 26.0436C24.9449 26.3809 24.3236 27.1977 24.0953 28.2852C23.892 29.2539 24.0053 30.373 24.4142 31.4352C25.163 33.3837 26.6781 34.6283 28.1332 34.6283C28.2888 34.6283 28.4438 34.6135 28.597 34.5843C29.8312 38.5621 31.8898 41.8697 35.2915 43.8998V47.9777H33.5244V59.4791H52.3744V47.9777H50.6065V43.9253C54.0142 41.8977 56.0747 38.5801 57.308 34.5861C57.4593 34.6144 57.6121 34.6283 57.7659 34.6283C59.2193 34.6283 60.735 33.3837 61.4849 31.4358C61.8927 30.373 62.006 29.2539 61.8032 28.2852ZM26.0353 30.7957C25.7526 30.0604 25.666 29.2786 25.7974 28.6511C25.9016 28.1555 26.1327 27.8033 26.4317 27.6852C26.5127 27.6536 26.6011 27.6382 26.6951 27.6382C26.8649 27.6382 27.053 27.6901 27.2472 27.7869C27.4465 29.5423 27.7296 31.2444 28.1238 32.8608C27.458 32.8473 26.5258 32.0718 26.0353 30.7957ZM51.6048 49.7398C49.8747 51.5816 46.6505 52.8232 42.9494 52.8232C39.2482 52.8232 36.024 51.5816 34.2939 49.7398H36.1615C36.6418 49.7398 37.0315 49.3451 37.0315 48.8587V44.7795C38.7268 45.4857 40.6972 45.9267 42.9935 46.0442C45.2526 45.9279 47.1933 45.4934 48.8671 44.7998V48.8587C48.8671 49.3451 49.2568 49.7398 49.7371 49.7398H51.6048ZM56.9457 26.854C56.8885 27.3957 56.8308 27.9368 56.7598 28.4575C56.5787 29.7847 56.3473 31.0377 56.0651 32.2209C55.9586 32.6673 55.8386 33.096 55.7162 33.5209C54.6496 37.2216 52.9699 40.1045 50.3758 41.9482C49.9927 42.2205 49.5779 42.4574 49.1543 42.6843C47.4494 43.5976 45.4278 44.1584 42.9935 44.2845C40.5646 44.1595 38.5433 43.6095 36.8369 42.712C36.3839 42.4737 35.9449 42.2198 35.5376 41.9307C32.938 40.0853 31.2543 37.2074 30.186 33.5144C30.063 33.0894 29.9426 32.6604 29.8358 32.2137C29.5533 31.0332 29.3214 29.7833 29.1402 28.4594C29.0689 27.9386 29.0108 27.3973 28.9534 26.8554C28.7998 25.4054 28.6903 23.8859 28.6237 22.2942C28.8273 21.002 29.1254 19.9294 29.4807 19.0506C30.016 18.9588 31.1709 18.7059 32.5308 18.0715C32.7449 18.3715 33.1097 18.5619 33.4801 18.5332C33.6727 18.5235 36.2362 18.3749 38.9459 17.2983C38.9323 17.4228 38.9397 17.5507 38.9691 17.6774C39.0853 18.1707 39.5157 18.5229 40.0164 18.5344C40.2492 18.5418 44.8547 18.5992 47.6969 15.3074C48.7935 17.9677 51.2556 22.3251 56.2774 25.0605L57.026 26.1052C57.0025 26.3597 56.9722 26.6039 56.9457 26.854ZM59.8627 30.7957C59.3738 32.0694 58.4441 32.8429 57.7799 32.8599C58.1722 31.2436 58.4539 29.5415 58.6525 27.7862C58.8463 27.6897 59.0339 27.6382 59.2034 27.6382C59.2975 27.6382 59.3858 27.6536 59.4663 27.6852C59.8763 27.8469 60.0406 28.3597 60.1018 28.6511C60.2332 29.2786 60.1459 30.0604 59.8627 30.7957ZM40.9754 33.0894V30.6196C40.9754 30.1332 41.365 29.7386 41.8454 29.7386C42.3257 29.7386 42.7154 30.1332 42.7154 30.6196V32.8898H44.0532C44.5335 32.8898 44.9232 33.2844 44.9232 33.7708C44.9232 34.2572 44.5335 34.6518 44.0532 34.6518H42.5182C41.6675 34.6518 40.9754 33.9509 40.9754 33.0894ZM36.8181 27.4239C36.8181 28.3715 36.0595 29.1396 35.1238 29.1396C34.1881 29.1396 33.4296 28.3715 33.4296 27.4239C33.4296 26.4764 34.1881 25.7083 35.1238 25.7083C36.0595 25.7083 36.8181 26.4764 36.8181 27.4239ZM52.4691 27.4239C52.4691 28.3715 51.7105 29.1396 50.7749 29.1396C49.8392 29.1396 49.0806 28.3715 49.0806 27.4239C49.0806 26.4764 49.8392 25.7083 50.7749 25.7083C51.7105 25.7083 52.4691 26.4764 52.4691 27.4239ZM47.2081 38.5166C47.2081 39.9391 45.0082 40.4461 42.9493 40.4461C40.891 40.4461 38.691 39.9391 38.691 38.5166C38.691 38.0302 39.0807 37.6356 39.561 37.6356C39.949 37.6356 40.2775 37.8926 40.3897 38.2482C40.6808 38.4225 41.5961 38.6841 42.9493 38.6841C44.303 38.6841 45.2183 38.4225 45.5094 38.2476C45.6216 37.8926 45.9501 37.6356 46.3381 37.6356C46.8184 37.6356 47.2081 38.0302 47.2081 38.5166ZM90.8531 65.996C90.6027 65.5494 90.214 65.2181 89.751 65.0275C89.8236 64.5428 89.7519 64.0329 89.4948 63.5744C89.2446 63.128 88.8561 62.7969 88.3926 62.6061C88.4651 62.1214 88.3934 61.6114 88.1366 61.1528C87.8795 60.6941 87.4832 60.3712 87.0344 60.1869C87.1073 59.7021 87.036 59.1919 86.7795 58.7334C86.4838 58.2069 86.0046 57.8295 85.428 57.6689C84.8571 57.5094 84.2522 57.5851 83.7322 57.8834L82.8505 58.3907C82.6825 58.1129 82.4605 57.8618 82.1882 57.6535V56.6904H87.1182C87.5985 56.6904 87.9882 56.2957 87.9882 55.8088C87.9882 55.3224 87.5985 54.9278 87.1182 54.9278H82.1882V54.0467H87.1182C87.5985 54.0467 87.9882 53.6521 87.9882 53.1657C87.9882 52.6793 87.5985 52.2847 87.1182 52.2847H82.1882V51.4037H87.1182C87.5985 51.4037 87.9882 51.0091 87.9882 50.5227C87.9882 50.0363 87.5985 49.6417 87.1182 49.6417H82.1882V48.7607H87.1182C87.5985 48.7607 87.9882 48.366 87.9882 47.8797C87.9882 47.3933 87.5985 46.9986 87.1182 46.9986H82.1882L82.1939 46.1176H87.1182C87.5985 46.1176 87.9882 45.723 87.9882 45.2366C87.9882 44.7502 87.5985 44.3556 87.1182 44.3556H82.1939C81.2151 44.3556 80.4482 45.2584 80.4482 46.4113V47.8797V50.5227V50.6558C80.3738 49.6549 80.0077 48.6495 79.3618 47.7839C77.7725 45.6519 75.0504 45.0078 73.2968 46.3499C72.3827 47.049 71.9195 48.1526 71.8996 49.3492C70.7578 49.0409 69.5828 49.19 68.6681 49.8895C67.7868 50.5628 67.2702 51.6555 67.2509 52.8864C67.2339 54.0261 67.6304 55.1991 68.369 56.1902C69.1076 57.1802 70.1136 57.888 71.2011 58.1828C71.5647 58.2815 71.9283 58.3296 72.284 58.3296C73.077 58.3296 73.8269 58.0887 74.4352 57.623C74.493 57.5788 74.5341 57.5206 74.5884 57.4733L77.317 60.7873L76.3311 62.938C76.2557 63.07 76.1872 63.2046 76.1263 63.3453L70.39 66.6407L60.6025 50.3621C60.3623 49.963 60.07 49.6203 59.7559 49.3061C59.2377 48.6289 58.4897 48.1467 57.6222 47.9913C56.7772 47.7078 55.8765 47.6173 54.9844 47.7687V59.5757C55.1969 59.6425 55.3937 59.7403 55.5648 59.8703C55.8856 60.114 56.1205 60.4571 56.2151 60.8614L56.4344 61.792L60.4944 79.0217V71.6424L63.7551 77.0661C64.7905 78.7879 66.6041 79.7447 68.4664 79.7447C69.3886 79.7447 70.3231 79.5095 71.1807 79.0162L81.6263 73.0143C81.6694 72.9896 81.7027 72.955 81.7449 72.9293C81.827 72.9344 81.9085 72.9455 81.9911 72.9455C82.6708 72.9455 83.3595 72.7723 83.9916 72.4086L85.9554 71.2792L86.0753 71.4249C86.4719 71.9062 87.1714 71.9876 87.6654 71.6098L88.0247 71.335L88.4035 71.0454L88.7624 70.771C89.123 70.4953 89.2601 70.0255 89.1616 69.5719L90.0148 69.0807C90.5336 68.7825 90.9063 68.2972 91.0649 67.7133C91.2235 67.1306 91.1476 66.5203 90.8531 65.996ZM85.791 61.927L85.9503 61.8353C86.025 61.7929 86.1089 61.7699 86.1927 61.7699C86.2369 61.7699 86.2811 61.7768 86.3252 61.7883C86.4532 61.8239 86.5597 61.9076 86.6243 62.0235C86.7591 62.2632 86.6753 62.5707 86.4385 62.7072L86.2799 62.7984L85.1334 63.458L84.1616 64.0172C84.0471 64.0815 83.9146 64.0975 83.7866 64.0642C83.6597 64.0287 83.5532 63.9449 83.4887 63.8291C83.3539 63.5882 83.4366 63.2819 83.6733 63.1454L84.5702 62.6294L85.791 61.927ZM82.998 60.5553L83.0197 60.5081C83.0358 60.4729 83.0413 60.4358 83.0553 60.4002C83.0715 60.359 83.0831 60.317 83.0966 60.2753L84.1825 59.6504L84.592 59.4148C84.6679 59.3724 84.7506 59.3495 84.8356 59.3495C84.8798 59.3495 84.9239 59.3552 84.967 59.3678C85.095 59.4034 85.2015 59.4871 85.2661 59.603C85.35 59.7522 85.3409 59.924 85.2712 60.0681C85.2289 60.1555 85.1696 60.2352 85.0803 60.2867L84.4553 60.6462L83.569 61.1561L82.8033 61.5967C82.7086 61.6509 82.6018 61.6626 82.4947 61.6486L82.998 60.5553ZM73.0373 55.7485C72.6171 56.0675 72.0824 55.99 71.8003 55.9132C71.218 55.7554 70.6426 55.3402 70.22 54.774C69.7986 54.2079 69.5619 53.5334 69.5709 52.9231C69.5755 52.6283 69.6457 52.0851 70.066 51.7639C70.2767 51.6033 70.5361 51.527 70.817 51.527C71.499 51.527 72.3123 51.9738 72.8821 52.7384C73.6876 53.8185 73.7578 55.1968 73.0373 55.7485ZM74.8487 51.2345C74.0444 50.155 73.973 48.7762 74.6946 48.2244C74.9053 48.0638 75.1636 47.9875 75.4457 47.9875C76.1277 47.9875 76.9399 48.4349 77.5108 49.1995C77.9334 49.7656 78.1701 50.4401 78.1611 51.0498C78.1565 51.3452 78.0863 51.8878 77.666 52.209C77.2457 52.5279 76.7111 52.4505 76.429 52.3736C75.8467 52.2159 75.2712 51.8006 74.8487 51.2345ZM77.0889 58.3126C76.692 57.7804 76.7964 57.0232 77.3219 56.6214C77.8474 56.2196 78.5951 56.3252 78.992 56.8574C79.1307 57.0435 79.187 57.2575 79.2066 57.4737C78.8805 57.6879 78.6065 57.977 78.4352 58.348L78.2459 58.7607C77.8194 58.8362 77.3678 58.6867 77.0889 58.3126ZM83.9277 70.4184L83.1318 70.876C82.0205 71.5184 80.5966 71.1204 79.9622 69.9927L77.8121 66.1612C77.5054 65.6144 77.4271 64.9795 77.5922 64.3728L77.6019 64.3517L77.8875 63.7286L80.0132 59.0902C80.0744 58.9577 80.2415 58.8712 80.4482 58.8514C80.6012 58.8367 80.7735 58.8544 80.9523 58.9388C81.1314 59.0234 81.2558 59.146 81.343 59.2742C81.3627 59.3033 81.386 59.3303 81.4009 59.3598C81.4744 59.5059 81.492 59.6541 81.4417 59.7647L79.6613 63.6346L79.3063 64.4061C79.2723 64.4799 79.2648 64.5572 79.2521 64.6337C79.1889 65.0144 79.3647 65.4053 79.7277 65.5762C79.8467 65.6324 79.9713 65.6588 80.0936 65.6588C80.2178 65.6588 80.3365 65.6241 80.4482 65.5733V69.7587C80.4482 70.2451 80.8379 70.6397 81.3182 70.6397C81.7985 70.6397 82.1882 70.2451 82.1882 69.7587V66.7038L84.2871 69.253L84.8228 69.9037L83.9277 70.4184ZM85.5198 66.4377C85.4043 66.5019 85.2695 66.5214 85.1448 66.4847C85.018 66.4492 84.9115 66.3654 84.8469 66.2496C84.7121 66.0087 84.7948 65.7024 85.0316 65.5659L86.1346 64.9313L87.1491 64.3475L87.3085 64.2558C87.3833 64.2134 87.4671 64.1904 87.5509 64.1904C87.5951 64.1904 87.6393 64.1973 87.6835 64.2088C87.8104 64.2443 87.9168 64.3281 87.9814 64.444C88.1162 64.6849 88.0335 64.9911 87.7968 65.1277L87.638 65.219L86.6977 65.7599L85.5198 66.4377ZM89.3872 67.2464C89.3521 67.3749 89.2694 67.4828 89.155 67.5481C89.155 67.5481 89.155 67.5481 89.1539 67.5481L88.7459 67.7831L88.2621 68.0618L86.8792 68.8582C86.7758 68.9188 86.6606 68.9294 86.5514 68.9099C86.4104 68.8848 86.28 68.8051 86.204 68.6701C86.0692 68.4292 86.153 68.1229 86.3898 67.9864L87.6989 67.2332L88.0517 67.0301L88.6668 66.6763C88.7415 66.6339 88.8254 66.6109 88.9092 66.6109C88.9224 66.6109 88.9353 66.6153 88.9485 66.6164C88.9794 66.6192 89.0104 66.6212 89.0406 66.6293C89.1686 66.6648 89.2739 66.7486 89.3408 66.8667C89.4053 66.9826 89.4223 67.1168 89.3872 67.2464ZM60.3245 92.7509L59.8401 81.3392C59.8378 81.3094 59.8344 81.2796 59.8265 81.2497L55.0868 61.1333C55.0693 61.0578 55.0324 60.9898 54.9844 60.9282C54.8551 60.7622 54.6311 60.6538 54.3799 60.6538H31.5186C31.2674 60.6538 31.0436 60.7628 30.9144 60.9283C30.8664 60.9897 30.8294 61.0573 30.8118 61.1321L26.649 78.802L26.1233 78.5019L26.0013 78.4323C25.8651 78.3566 25.728 78.2947 25.591 78.2319L29.4644 61.7904L29.6268 61.1011L29.6835 60.8602C29.7784 60.456 30.0134 60.1132 30.3343 59.8698C30.5053 59.7401 30.702 59.6423 30.9144 59.5756V47.9292V47.8116C28.8846 47.146 26.5688 47.7093 25.0735 49.4369L6.3685 71.0217C5.33084 72.2193 4.84827 73.8082 5.04198 75.3889C5.23569 76.9708 6.08813 78.3922 7.3835 79.2961L18.1135 86.7847C18.4484 87.0186 18.8035 87.1945 19.1652 87.344C19.6046 87.8547 20.1276 88.2911 20.7173 88.6236L24.498 90.7565L25.0649 91.0763L25.4043 91.2678L25.6037 91.3802C25.6134 91.3857 25.624 91.3872 25.6338 91.3925L25.575 92.7522L25.5204 94.0152C25.513 94.1873 25.5974 94.3146 25.6699 94.3915C25.8081 94.5383 26.016 94.6221 26.2392 94.6221H59.6588C59.882 94.6221 60.0904 94.5383 60.2286 94.3915C60.3011 94.3146 60.3861 94.1873 60.3782 94.0152L60.3245 92.7509ZM18.7371 73.6671L25.4044 65.9735V78.1451C25.1854 78.0541 24.9661 77.9829 24.747 77.923C24.6188 77.8149 24.5067 77.6938 24.3666 77.596L18.7371 73.6671ZM31.7933 84.1015C31.7146 84.2449 31.5288 84.2989 31.3906 84.2186C31.3901 84.2186 31.3901 84.2186 31.3901 84.2186L27.4354 81.9874C27.2161 81.8638 26.9579 81.8713 26.726 81.9626C26.5142 82.0459 26.3239 82.1983 26.212 82.4003C26.0987 82.6045 26.0704 82.8454 26.1332 83.0714C26.1961 83.2962 26.3451 83.4867 26.5467 83.6014L26.55 83.6033L31.2841 86.2754C31.3759 86.327 31.411 86.4108 31.4235 86.4555C31.4365 86.5002 31.4501 86.5897 31.398 86.6838C31.3476 86.7767 31.2655 86.8111 31.2207 86.8249C31.176 86.8375 31.0865 86.8513 30.9958 86.7997L26.3698 84.1885L26.2584 84.1256C26.1626 84.0716 26.0578 84.0478 25.9519 84.039C25.7622 84.0231 25.5741 84.0825 25.4044 84.1836C25.3886 84.193 25.3722 84.2005 25.357 84.2107C25.2273 84.2975 25.11 84.4026 25.0338 84.5398C24.9211 84.7439 24.8928 84.986 24.9557 85.2108C25.0095 85.4033 25.1356 85.5609 25.2946 85.6765C25.3214 85.696 25.3401 85.7245 25.3692 85.7408L25.4044 85.7607L25.4455 85.7839L25.8662 86.0212L29.3238 87.972C29.4161 88.0237 29.4513 88.1074 29.4637 88.1533C29.4767 88.198 29.4903 88.2864 29.4382 88.3804C29.3873 88.4733 29.3057 88.5089 29.2609 88.5215C29.2173 88.5341 29.129 88.5491 29.0361 88.4963L25.8372 86.692L25.4044 86.4478L25.2652 86.3693L25.0248 86.2337L24.6982 86.0495L24.6391 86.0161C24.3632 85.8613 23.9418 85.9209 23.6728 86.0907C23.4117 86.2559 23.2565 86.5484 23.2638 86.8593C23.268 87.0238 23.3218 87.1768 23.4067 87.3106C23.4829 87.4305 23.5832 87.5356 23.7102 87.6072L24.6103 88.1151L25.1772 88.4351L25.4044 88.5633L25.7479 88.757L26.7393 89.3165C26.8305 89.3681 26.865 89.4519 26.8781 89.4966C26.8905 89.5413 26.9041 89.6308 26.8531 89.7237C26.775 89.866 26.5881 89.9222 26.4504 89.8408L25.7188 89.428L25.4044 89.2505L25.1487 89.1063L24.5818 88.7864L22.5107 87.6179L21.5646 87.0841C20.7547 86.6276 20.1169 85.8968 19.7691 85.0262C19.2979 83.8492 19.3511 82.5621 19.9107 81.5835C20.5921 80.3928 21.9033 79.5129 23.3624 79.5129C23.9537 79.5129 24.5696 79.6617 25.1773 79.988C25.1948 79.9974 25.2123 80.0034 25.2298 80.0131L25.4044 80.1128L25.7036 80.2835L26.2292 80.5837L26.5413 80.7618L31.6778 83.6943C31.7701 83.7459 31.8052 83.8308 31.8177 83.8756C31.8307 83.9203 31.8443 84.0098 31.7933 84.1015ZM53.303 79.7329C53.2781 81.2806 51.8035 81.9562 51.0516 80.761L50.2953 79.5603C50.0941 80.2727 49.788 80.9417 49.3919 81.5513C49.395 81.6459 49.4043 81.7387 49.4043 81.8343C49.4043 85.8279 46.5146 89.0657 42.9494 89.0657C39.3841 89.0657 36.4944 85.8279 36.4944 81.8343C36.4944 81.7387 36.5037 81.6459 36.5068 81.5513C36.1101 80.9417 35.8039 80.2727 35.6028 79.5603L34.8471 80.761C34.0952 81.9562 32.6206 81.2806 32.5951 79.7329C32.5833 79.0101 32.5579 78.2598 32.5106 77.5244C32.3461 74.9414 35.8182 73.7304 37.3829 73.316C38.775 72.3031 40.7501 71.8472 42.9494 71.8472C45.148 71.8472 47.1237 72.3031 48.5158 73.316C50.0805 73.7304 53.5526 74.9414 53.388 77.5244C53.3409 78.2598 53.3154 79.0101 53.303 79.7329ZM40.3042 85.0966C40.3042 84.0085 41.4885 83.1264 42.9494 83.1264C44.4103 83.1264 45.5945 84.0085 45.5945 85.0966C45.5945 86.1846 44.4103 87.0667 42.9494 87.0667C41.4885 87.0667 40.3042 86.1846 40.3042 85.0966Z" fill="#124C5F"/>
</svg>
