<svg width="87" height="95" viewBox="0 0 87 95" fill="none" xmlns="http://www.w3.org/2000/svg">
<path d="M56.8032 28.2852C56.5756 27.1977 55.9536 26.3809 55.0984 26.0436C55.0372 26.0195 54.9731 26.0167 54.9111 25.9978C55.5239 22.9628 57.2522 11.9293 51.59 5.47231C48.3083 1.7303 43.1874 0.24933 36.3775 1.0661C36.2523 1.01104 36.1164 0.978919 35.9754 0.97433C30.6262 0.786197 26.5328 2.39164 23.8492 5.7396C18.5916 12.2968 20.4953 23.3614 21.0435 25.9841C20.9629 26.0067 20.88 26.0123 20.8008 26.0436C19.9449 26.3809 19.3236 27.1977 19.0953 28.2852C18.892 29.2539 19.0053 30.373 19.4142 31.4352C20.163 33.3837 21.6781 34.6283 23.1332 34.6283C23.2888 34.6283 23.4438 34.6135 23.597 34.5843C24.8312 38.5621 26.8898 41.8697 30.2915 43.8998V47.9777H28.5244V59.4791H47.3744V47.9777H45.6065V43.9253C49.0142 41.8977 51.0747 38.5801 52.308 34.5861C52.4593 34.6144 52.6121 34.6283 52.7659 34.6283C54.2193 34.6283 55.735 33.3837 56.4849 31.4358C56.8927 30.373 57.006 29.2539 56.8032 28.2852ZM21.0353 30.7957C20.7526 30.0604 20.666 29.2786 20.7974 28.6511C20.9016 28.1555 21.1327 27.8033 21.4317 27.6852C21.5127 27.6536 21.6011 27.6382 21.6951 27.6382C21.8649 27.6382 22.053 27.6901 22.2472 27.7869C22.4465 29.5423 22.7296 31.2444 23.1238 32.8608C22.458 32.8473 21.5258 32.0718 21.0353 30.7957ZM46.6048 49.7398C44.8747 51.5816 41.6505 52.8232 37.9494 52.8232C34.2482 52.8232 31.024 51.5816 29.2939 49.7398H31.1615C31.6418 49.7398 32.0315 49.3451 32.0315 48.8587V44.7795C33.7268 45.4857 35.6972 45.9267 37.9935 46.0442C40.2526 45.9279 42.1933 45.4934 43.8671 44.7998V48.8587C43.8671 49.3451 44.2568 49.7398 44.7371 49.7398H46.6048ZM51.9457 26.854C51.8885 27.3957 51.8308 27.9368 51.7598 28.4575C51.5787 29.7847 51.3473 31.0377 51.0651 32.2209C50.9586 32.6673 50.8386 33.096 50.7162 33.5209C49.6496 37.2216 47.9699 40.1045 45.3758 41.9482C44.9927 42.2205 44.5779 42.4574 44.1543 42.6843C42.4494 43.5976 40.4278 44.1584 37.9935 44.2845C35.5646 44.1595 33.5433 43.6095 31.8369 42.712C31.3839 42.4737 30.9449 42.2198 30.5376 41.9307C27.938 40.0853 26.2543 37.2074 25.186 33.5144C25.063 33.0894 24.9426 32.6604 24.8358 32.2137C24.5533 31.0332 24.3214 29.7833 24.1402 28.4594C24.0689 27.9386 24.0108 27.3973 23.9534 26.8554C23.7998 25.4054 23.6903 23.8859 23.6237 22.2942C23.8273 21.002 24.1254 19.9294 24.4807 19.0506C25.016 18.9588 26.1709 18.7059 27.5308 18.0715C27.7449 18.3715 28.1097 18.5619 28.4801 18.5332C28.6727 18.5235 31.2362 18.3749 33.9459 17.2983C33.9323 17.4228 33.9397 17.5507 33.9691 17.6774C34.0853 18.1707 34.5157 18.5229 35.0164 18.5344C35.2492 18.5418 39.8547 18.5992 42.6969 15.3074C43.7935 17.9677 46.2556 22.3251 51.2774 25.0605L52.026 26.1052C52.0025 26.3597 51.9722 26.6039 51.9457 26.854ZM54.8627 30.7957C54.3738 32.0694 53.4441 32.8429 52.7799 32.8599C53.1722 31.2436 53.4539 29.5415 53.6525 27.7862C53.8463 27.6897 54.0339 27.6382 54.2034 27.6382C54.2975 27.6382 54.3858 27.6536 54.4663 27.6852C54.8763 27.8469 55.0406 28.3597 55.1018 28.6511C55.2332 29.2786 55.1459 30.0604 54.8627 30.7957ZM35.9754 33.0894V30.6196C35.9754 30.1332 36.365 29.7386 36.8454 29.7386C37.3257 29.7386 37.7154 30.1332 37.7154 30.6196V32.8898H39.0532C39.5335 32.8898 39.9232 33.2844 39.9232 33.7708C39.9232 34.2572 39.5335 34.6518 39.0532 34.6518H37.5182C36.6675 34.6518 35.9754 33.9509 35.9754 33.0894ZM31.8181 27.4239C31.8181 28.3715 31.0595 29.1396 30.1238 29.1396C29.1881 29.1396 28.4296 28.3715 28.4296 27.4239C28.4296 26.4764 29.1881 25.7083 30.1238 25.7083C31.0595 25.7083 31.8181 26.4764 31.8181 27.4239ZM47.4691 27.4239C47.4691 28.3715 46.7105 29.1396 45.7749 29.1396C44.8392 29.1396 44.0806 28.3715 44.0806 27.4239C44.0806 26.4764 44.8392 25.7083 45.7749 25.7083C46.7105 25.7083 47.4691 26.4764 47.4691 27.4239ZM42.2081 38.5166C42.2081 39.9391 40.0082 40.4461 37.9493 40.4461C35.891 40.4461 33.691 39.9391 33.691 38.5166C33.691 38.0302 34.0807 37.6356 34.561 37.6356C34.949 37.6356 35.2775 37.8926 35.3897 38.2482C35.6808 38.4225 36.5961 38.6841 37.9493 38.6841C39.303 38.6841 40.2183 38.4225 40.5094 38.2476C40.6216 37.8926 40.9501 37.6356 41.3381 37.6356C41.8184 37.6356 42.2081 38.0302 42.2081 38.5166ZM85.8531 65.996C85.6027 65.5494 85.214 65.2181 84.751 65.0275C84.8236 64.5428 84.7519 64.0329 84.4948 63.5744C84.2446 63.128 83.8561 62.7969 83.3926 62.6061C83.4651 62.1214 83.3934 61.6114 83.1366 61.1528C82.8795 60.6941 82.4832 60.3712 82.0344 60.1869C82.1073 59.7021 82.036 59.1919 81.7795 58.7334C81.4838 58.2069 81.0046 57.8295 80.428 57.6689C79.8571 57.5094 79.2522 57.5851 78.7322 57.8834L77.8505 58.3907C77.6825 58.1129 77.4605 57.8618 77.1882 57.6535V56.6904H82.1182C82.5985 56.6904 82.9882 56.2957 82.9882 55.8088C82.9882 55.3224 82.5985 54.9278 82.1182 54.9278H77.1882V54.0467H82.1182C82.5985 54.0467 82.9882 53.6521 82.9882 53.1657C82.9882 52.6793 82.5985 52.2847 82.1182 52.2847H77.1882V51.4037H82.1182C82.5985 51.4037 82.9882 51.0091 82.9882 50.5227C82.9882 50.0363 82.5985 49.6417 82.1182 49.6417H77.1882V48.7607H82.1182C82.5985 48.7607 82.9882 48.366 82.9882 47.8797C82.9882 47.3933 82.5985 46.9986 82.1182 46.9986H77.1882L77.1939 46.1176H82.1182C82.5985 46.1176 82.9882 45.723 82.9882 45.2366C82.9882 44.7502 82.5985 44.3556 82.1182 44.3556H77.1939C76.2151 44.3556 75.4482 45.2584 75.4482 46.4113V47.8797V50.5227V50.6558C75.3738 49.6549 75.0077 48.6495 74.3618 47.7839C72.7725 45.6519 70.0504 45.0078 68.2968 46.3499C67.3827 47.049 66.9195 48.1526 66.8996 49.3492C65.7578 49.0409 64.5828 49.19 63.6681 49.8895C62.7868 50.5628 62.2702 51.6555 62.2509 52.8864C62.2339 54.0261 62.6304 55.1991 63.369 56.1902C64.1076 57.1802 65.1136 57.888 66.2011 58.1828C66.5647 58.2815 66.9283 58.3296 67.284 58.3296C68.077 58.3296 68.8269 58.0887 69.4352 57.623C69.493 57.5788 69.5341 57.5206 69.5884 57.4733L72.317 60.7873L71.3311 62.938C71.2557 63.07 71.1872 63.2046 71.1263 63.3453L65.39 66.6407L55.6025 50.3621C55.3623 49.963 55.07 49.6203 54.7559 49.3061C54.2377 48.6289 53.4897 48.1467 52.6222 47.9913C51.7772 47.7078 50.8765 47.6173 49.9844 47.7687V59.5757C50.1969 59.6425 50.3937 59.7403 50.5648 59.8703C50.8856 60.114 51.1205 60.4571 51.2151 60.8614L51.4344 61.792L55.4944 79.0217V71.6424L58.7551 77.0661C59.7905 78.7879 61.6041 79.7447 63.4664 79.7447C64.3886 79.7447 65.3231 79.5095 66.1807 79.0162L76.6263 73.0143C76.6694 72.9896 76.7027 72.955 76.7449 72.9293C76.827 72.9344 76.9085 72.9455 76.9911 72.9455C77.6708 72.9455 78.3595 72.7723 78.9916 72.4086L80.9554 71.2792L81.0753 71.4249C81.4719 71.9062 82.1714 71.9876 82.6654 71.6098L83.0247 71.335L83.4035 71.0454L83.7624 70.771C84.123 70.4953 84.2601 70.0255 84.1616 69.5719L85.0148 69.0807C85.5336 68.7825 85.9063 68.2972 86.0649 67.7133C86.2235 67.1306 86.1476 66.5203 85.8531 65.996ZM80.791 61.927L80.9503 61.8353C81.025 61.7929 81.1089 61.7699 81.1927 61.7699C81.2369 61.7699 81.2811 61.7768 81.3252 61.7883C81.4532 61.8239 81.5597 61.9076 81.6243 62.0235C81.7591 62.2632 81.6753 62.5707 81.4385 62.7072L81.2799 62.7984L80.1334 63.458L79.1616 64.0172C79.0471 64.0815 78.9146 64.0975 78.7866 64.0642C78.6597 64.0287 78.5532 63.9449 78.4887 63.8291C78.3539 63.5882 78.4366 63.2819 78.6733 63.1454L79.5702 62.6294L80.791 61.927ZM77.998 60.5553L78.0197 60.5081C78.0358 60.4729 78.0413 60.4358 78.0553 60.4002C78.0715 60.359 78.0831 60.317 78.0966 60.2753L79.1825 59.6504L79.592 59.4148C79.6679 59.3724 79.7506 59.3495 79.8356 59.3495C79.8798 59.3495 79.9239 59.3552 79.967 59.3678C80.095 59.4034 80.2015 59.4871 80.2661 59.603C80.35 59.7522 80.3409 59.924 80.2712 60.0681C80.2289 60.1555 80.1696 60.2352 80.0803 60.2867L79.4553 60.6462L78.569 61.1561L77.8033 61.5967C77.7086 61.6509 77.6018 61.6626 77.4947 61.6486L77.998 60.5553ZM68.0373 55.7485C67.6171 56.0675 67.0824 55.99 66.8003 55.9132C66.218 55.7554 65.6426 55.3402 65.22 54.774C64.7986 54.2079 64.5619 53.5334 64.5709 52.9231C64.5755 52.6283 64.6457 52.0851 65.066 51.7639C65.2767 51.6033 65.5361 51.527 65.817 51.527C66.499 51.527 67.3123 51.9738 67.8821 52.7384C68.6876 53.8185 68.7578 55.1968 68.0373 55.7485ZM69.8487 51.2345C69.0444 50.155 68.973 48.7762 69.6946 48.2244C69.9053 48.0638 70.1636 47.9875 70.4457 47.9875C71.1277 47.9875 71.9399 48.4349 72.5108 49.1995C72.9334 49.7656 73.1701 50.4401 73.1611 51.0498C73.1565 51.3452 73.0863 51.8878 72.666 52.209C72.2457 52.5279 71.7111 52.4505 71.429 52.3736C70.8467 52.2159 70.2712 51.8006 69.8487 51.2345ZM72.0889 58.3126C71.692 57.7804 71.7964 57.0232 72.3219 56.6214C72.8474 56.2196 73.5951 56.3252 73.992 56.8574C74.1307 57.0435 74.187 57.2575 74.2066 57.4737C73.8805 57.6879 73.6065 57.977 73.4352 58.348L73.2459 58.7607C72.8194 58.8362 72.3678 58.6867 72.0889 58.3126ZM78.9277 70.4184L78.1318 70.876C77.0205 71.5184 75.5966 71.1204 74.9622 69.9927L72.8121 66.1612C72.5054 65.6144 72.4271 64.9795 72.5922 64.3728L72.6019 64.3517L72.8875 63.7286L75.0132 59.0902C75.0744 58.9577 75.2415 58.8712 75.4482 58.8514C75.6012 58.8367 75.7735 58.8544 75.9523 58.9388C76.1314 59.0234 76.2558 59.146 76.343 59.2742C76.3627 59.3033 76.386 59.3303 76.4009 59.3598C76.4744 59.5059 76.492 59.6541 76.4417 59.7647L74.6613 63.6346L74.3063 64.4061C74.2723 64.4799 74.2648 64.5572 74.2521 64.6337C74.1889 65.0144 74.3647 65.4053 74.7277 65.5762C74.8467 65.6324 74.9713 65.6588 75.0936 65.6588C75.2178 65.6588 75.3365 65.6241 75.4482 65.5733V69.7587C75.4482 70.2451 75.8379 70.6397 76.3182 70.6397C76.7985 70.6397 77.1882 70.2451 77.1882 69.7587V66.7038L79.2871 69.253L79.8228 69.9037L78.9277 70.4184ZM80.5198 66.4377C80.4043 66.5019 80.2695 66.5214 80.1448 66.4847C80.018 66.4492 79.9115 66.3654 79.8469 66.2496C79.7121 66.0087 79.7948 65.7024 80.0316 65.5659L81.1346 64.9313L82.1491 64.3475L82.3085 64.2558C82.3833 64.2134 82.4671 64.1904 82.5509 64.1904C82.5951 64.1904 82.6393 64.1973 82.6835 64.2088C82.8104 64.2443 82.9168 64.3281 82.9814 64.444C83.1162 64.6849 83.0335 64.9911 82.7968 65.1277L82.638 65.219L81.6977 65.7599L80.5198 66.4377ZM84.3872 67.2464C84.3521 67.3749 84.2694 67.4828 84.155 67.5481C84.155 67.5481 84.155 67.5481 84.1539 67.5481L83.7459 67.7831L83.2621 68.0618L81.8792 68.8582C81.7758 68.9188 81.6606 68.9294 81.5514 68.9099C81.4104 68.8848 81.28 68.8051 81.204 68.6701C81.0692 68.4292 81.153 68.1229 81.3898 67.9864L82.6989 67.2332L83.0517 67.0301L83.6668 66.6763C83.7415 66.6339 83.8254 66.6109 83.9092 66.6109C83.9224 66.6109 83.9353 66.6153 83.9485 66.6164C83.9794 66.6192 84.0104 66.6212 84.0406 66.6293C84.1686 66.6648 84.2739 66.7486 84.3408 66.8667C84.4053 66.9826 84.4223 67.1168 84.3872 67.2464ZM55.3245 92.7509L54.8401 81.3392C54.8378 81.3094 54.8344 81.2796 54.8265 81.2497L50.0868 61.1333C50.0693 61.0578 50.0324 60.9898 49.9844 60.9282C49.8551 60.7622 49.6311 60.6538 49.3799 60.6538H26.5186C26.2674 60.6538 26.0436 60.7628 25.9144 60.9283C25.8664 60.9897 25.8294 61.0573 25.8118 61.1321L21.649 78.802L21.1233 78.5019L21.0013 78.4323C20.8651 78.3566 20.728 78.2947 20.591 78.2319L24.4644 61.7904L24.6268 61.1011L24.6835 60.8602C24.7784 60.456 25.0134 60.1132 25.3343 59.8698C25.5053 59.7401 25.702 59.6423 25.9144 59.5756V47.9292V47.8116C23.8846 47.146 21.5688 47.7093 20.0735 49.4369L1.3685 71.0217C0.330844 72.2193 -0.151734 73.8082 0.0419769 75.3889C0.235688 76.9708 1.08813 78.3922 2.3835 79.2961L13.1135 86.7847C13.4484 87.0186 13.8035 87.1945 14.1652 87.344C14.6046 87.8547 15.1276 88.2911 15.7173 88.6236L19.498 90.7565L20.0649 91.0763L20.4043 91.2678L20.6037 91.3802C20.6134 91.3857 20.624 91.3872 20.6338 91.3925L20.575 92.7522L20.5204 94.0152C20.513 94.1873 20.5974 94.3146 20.6699 94.3915C20.8081 94.5383 21.016 94.6221 21.2392 94.6221H54.6588C54.882 94.6221 55.0904 94.5383 55.2286 94.3915C55.3011 94.3146 55.3861 94.1873 55.3782 94.0152L55.3245 92.7509ZM13.7371 73.6671L20.4044 65.9735V78.1451C20.1854 78.0541 19.9661 77.9829 19.747 77.923C19.6188 77.8149 19.5067 77.6938 19.3666 77.596L13.7371 73.6671ZM26.7933 84.1015C26.7146 84.2449 26.5288 84.2989 26.3906 84.2186C26.3901 84.2186 26.3901 84.2186 26.3901 84.2186L22.4354 81.9874C22.2161 81.8638 21.9579 81.8713 21.726 81.9626C21.5142 82.0459 21.3239 82.1983 21.212 82.4003C21.0987 82.6045 21.0704 82.8454 21.1332 83.0714C21.1961 83.2962 21.3451 83.4867 21.5467 83.6014L21.55 83.6033L26.2841 86.2754C26.3759 86.327 26.411 86.4108 26.4235 86.4555C26.4365 86.5002 26.4501 86.5897 26.398 86.6838C26.3476 86.7767 26.2655 86.8111 26.2207 86.8249C26.176 86.8375 26.0865 86.8513 25.9958 86.7997L21.3698 84.1885L21.2584 84.1256C21.1626 84.0716 21.0578 84.0478 20.9519 84.039C20.7622 84.0231 20.5741 84.0825 20.4044 84.1836C20.3886 84.193 20.3722 84.2005 20.357 84.2107C20.2273 84.2975 20.11 84.4026 20.0338 84.5398C19.9211 84.7439 19.8928 84.986 19.9557 85.2108C20.0095 85.4033 20.1356 85.5609 20.2946 85.6765C20.3214 85.696 20.3401 85.7245 20.3692 85.7408L20.4044 85.7607L20.4455 85.7839L20.8662 86.0212L24.3238 87.972C24.4161 88.0237 24.4513 88.1074 24.4637 88.1533C24.4767 88.198 24.4903 88.2864 24.4382 88.3804C24.3873 88.4733 24.3057 88.5089 24.2609 88.5215C24.2173 88.5341 24.129 88.5491 24.0361 88.4963L20.8372 86.692L20.4044 86.4478L20.2652 86.3693L20.0248 86.2337L19.6982 86.0495L19.6391 86.0161C19.3632 85.8613 18.9418 85.9209 18.6728 86.0907C18.4117 86.2559 18.2565 86.5484 18.2638 86.8593C18.268 87.0238 18.3218 87.1768 18.4067 87.3106C18.4829 87.4305 18.5832 87.5356 18.7102 87.6072L19.6103 88.1151L20.1772 88.4351L20.4044 88.5633L20.7479 88.757L21.7393 89.3165C21.8305 89.3681 21.865 89.4519 21.8781 89.4966C21.8905 89.5413 21.9041 89.6308 21.8531 89.7237C21.775 89.866 21.5881 89.9222 21.4504 89.8408L20.7188 89.428L20.4044 89.2505L20.1487 89.1063L19.5818 88.7864L17.5107 87.6179L16.5646 87.0841C15.7547 86.6276 15.1169 85.8968 14.7691 85.0262C14.2979 83.8492 14.3511 82.5621 14.9107 81.5835C15.5921 80.3928 16.9033 79.5129 18.3624 79.5129C18.9537 79.5129 19.5696 79.6617 20.1773 79.988C20.1948 79.9974 20.2123 80.0034 20.2298 80.0131L20.4044 80.1128L20.7036 80.2835L21.2292 80.5837L21.5413 80.7618L26.6778 83.6943C26.7701 83.7459 26.8052 83.8308 26.8177 83.8756C26.8307 83.9203 26.8443 84.0098 26.7933 84.1015ZM48.303 79.7329C48.2781 81.2806 46.8035 81.9562 46.0516 80.761L45.2953 79.5603C45.0941 80.2727 44.788 80.9417 44.3919 81.5513C44.395 81.6459 44.4043 81.7387 44.4043 81.8343C44.4043 85.8279 41.5146 89.0657 37.9494 89.0657C34.3841 89.0657 31.4944 85.8279 31.4944 81.8343C31.4944 81.7387 31.5037 81.6459 31.5068 81.5513C31.1101 80.9417 30.8039 80.2727 30.6028 79.5603L29.8471 80.761C29.0952 81.9562 27.6206 81.2806 27.5951 79.7329C27.5833 79.0101 27.5579 78.2598 27.5106 77.5244C27.3461 74.9414 30.8182 73.7304 32.3829 73.316C33.775 72.3031 35.7501 71.8472 37.9494 71.8472C40.148 71.8472 42.1237 72.3031 43.5158 73.316C45.0805 73.7304 48.5526 74.9414 48.388 77.5244C48.3409 78.2598 48.3154 79.0101 48.303 79.7329ZM35.3042 85.0966C35.3042 84.0085 36.4885 83.1264 37.9494 83.1264C39.4103 83.1264 40.5945 84.0085 40.5945 85.0966C40.5945 86.1846 39.4103 87.0667 37.9494 87.0667C36.4885 87.0667 35.3042 86.1846 35.3042 85.0966Z" fill="#124C5F"/>
</svg>
