<svg width="64" height="65" viewBox="0 0 64 65" fill="none" xmlns="http://www.w3.org/2000/svg">
<path d="M45.8776 28.9192L51.9217 22.7986C52.6404 23.0371 53.3934 23.1985 54.1906 23.1985H56.6436C60.7081 23.1985 64.0025 19.8625 64.0025 15.7465C64.0025 11.6305 60.7081 8.29452 56.6436 8.29452H55.839V7.47728C55.839 3.36128 52.5447 0.0252686 48.4802 0.0252686C44.4156 0.0252686 41.1213 3.36128 41.1213 7.47728V9.96128C41.1213 10.7686 41.2808 11.5312 41.5162 12.259L35.4722 18.3796L45.8776 28.9192Z" fill="#124C5F"/>
<path d="M18.1249 35.9437L12.0808 42.0643C11.3621 41.8258 10.609 41.6644 9.81181 41.6644H7.35886C3.29432 41.6644 0 45.0004 0 49.1164C0 53.2324 3.29432 56.5684 7.35886 56.5684H8.16343V57.3832C8.16343 61.4992 11.4577 64.8352 15.5223 64.8352C19.5868 64.8352 22.8811 61.4992 22.8811 57.3832V54.8992C22.8811 54.0919 22.7217 53.3293 22.4862 52.6015L28.5303 46.4809L18.1249 35.9437Z" fill="#124C5F"/>
<path d="M56.6436 41.6646H54.1906C53.3934 41.6646 52.6404 41.8261 51.9217 42.0645L22.4887 12.259C22.7242 11.5312 22.8836 10.7686 22.8836 9.96128V7.47728C22.8836 3.36128 19.5893 0.0252686 15.5247 0.0252686C11.4602 0.0252686 8.16588 3.36128 8.16588 7.47728V8.29203H7.35886C3.29432 8.29203 0 11.628 0 15.744C0 19.86 3.29432 23.196 7.35886 23.196H9.81181C10.609 23.196 11.3621 23.0346 12.0808 22.7961L41.5138 52.6017C41.2783 53.3295 41.1189 54.0921 41.1189 54.8994V57.3834C41.1189 61.4994 44.4132 64.8354 48.4777 64.8354C52.5423 64.8354 55.8366 61.4994 55.8366 57.3834V56.5686H56.6411C60.7057 56.5686 64 53.2326 64 49.1166C64 45.0006 60.7081 41.6646 56.6436 41.6646Z" fill="#124C5F"/>
</svg>
