<svg width="82" height="67" viewBox="0 0 82 67" fill="none" xmlns="http://www.w3.org/2000/svg">
<path d="M58.1681 30.7082C57.6585 29.547 56.7666 28.1277 54.9828 26.9665C53.9635 26.3214 50.0137 25.8053 49.8863 29.418C49.8863 29.418 48.2299 29.676 48.3573 30.8373C48.3573 30.8373 47.338 34.321 52.1797 33.9339C52.1797 33.9339 53.0716 40.5142 53.8361 41.9335C53.8361 41.9335 54.2183 43.2237 54.3457 44.514H56.3843L56.5117 41.9335C56.5117 41.9335 57.6585 42.7076 58.5504 44.514H61.4809C61.3534 43.4818 61.226 42.5786 60.9712 41.9335C60.9712 41.9335 65.3032 41.9335 66.8322 39.9981C66.8322 39.9981 68.1063 42.4496 69.6353 42.5786V44.643H71.6739C71.8013 44.256 71.8013 43.8689 71.9287 43.2237C71.9287 43.2237 72.6932 43.6108 73.0754 44.643H74.8592C74.6044 43.7398 72.311 35.3532 71.5465 34.708C71.5465 34.708 72.6932 34.579 73.0754 35.9983C73.0754 35.9983 73.7125 38.9659 74.9866 38.8369C74.9866 38.8369 75.8785 36.9015 74.3496 34.45C74.3496 34.45 73.7125 32.6436 70.3998 32.9017L60.8438 32.6436C59.5697 32.3856 58.6778 31.6114 58.1681 30.7082Z" fill="#124C5F"/>
<path d="M46.5736 20.773C47.3381 19.7408 47.2107 18.1925 46.1914 17.2893C45.1721 16.5151 43.6431 16.6442 42.7512 17.6764C40.3304 20.773 35.9983 21.2891 32.9404 19.9988L31.2841 24.6438C36.508 26.7082 42.8786 25.676 46.5736 20.773Z" fill="#124C5F"/>
<path d="M24.9134 12.6445C28.3614 12.6445 31.1566 9.81396 31.1566 6.32227C31.1566 2.83058 28.3614 0 24.9134 0C21.4653 0 18.6701 2.83058 18.6701 6.32227C18.6701 9.81396 21.4653 12.6445 24.9134 12.6445Z" fill="#124C5F"/>
<path d="M28.6083 45.9332L23.257 43.7398L26.4423 34.5789C19.3072 30.5791 16.7589 24.2568 16.6315 23.8698C15.867 21.9344 16.7589 19.87 18.6701 19.0958C20.5813 18.3217 22.6199 19.2248 23.3844 21.1602C23.5118 21.4183 25.0408 24.773 28.9906 27.4825L31.4114 20.7731C31.6662 19.999 31.5388 19.2248 31.0292 18.5797C26.4423 13.4187 21.091 11.4833 15.23 13.2896C13.5736 13.8058 12.4269 15.096 12.0446 16.7733L6.94812 43.6107C6.94812 43.7398 6.94812 43.7398 6.94812 43.8688C6.94812 43.9978 6.94812 44.2559 6.94812 44.3849L7.20294 56.6423L4.39986 55.9972C2.48866 55.6101 0.450052 56.9004 0.0678125 58.8358C-0.314427 60.7712 0.959704 62.8356 2.8709 63.2227L10.1334 64.771C11.2802 65.029 12.2995 64.771 13.1914 63.9968C14.0832 63.2227 14.5929 62.1905 14.4655 61.0292L14.2107 48.1266L23.5118 51.8684V63.0936C23.5118 65.1581 25.1682 66.8354 27.2068 66.8354C29.2454 66.8354 30.9018 65.1581 30.9018 63.0936V49.4169C31.0292 47.8686 30.0099 46.5783 28.6083 45.9332Z" fill="#124C5F"/>
<path d="M38.4191 31.8693C26.3149 30.9661 22.4925 22.0633 22.3651 21.6763C21.8554 20.386 20.4539 19.8699 19.1798 20.386C17.9056 20.9021 17.396 22.3214 17.9056 23.6117C18.1605 24.1278 23.0022 35.7401 38.1643 36.9013C39.5658 37.0303 40.7126 35.9981 40.7126 34.5789C40.7126 33.1596 39.8207 31.9983 38.4191 31.8693Z" fill="#124C5F"/>
<path d="M60.2067 15.0961C57.6585 15.6122 55.7473 17.9346 55.7473 20.6442H67.087C67.087 17.6766 64.921 15.3541 62.1179 14.967C58.2955 10.7092 52.1797 12.3865 47.338 16.6444C47.5928 16.9024 47.8477 17.2895 48.1025 17.6766C51.5426 14.4509 56.2569 12.2575 60.2067 15.0961Z" fill="#124C5F"/>
<path d="M79.5736 45.6752H43.7706C42.7513 45.6752 41.8594 46.5784 41.8594 47.6106C41.8594 48.6428 42.7513 49.5459 43.7706 49.5459H44.1528V52.7716C44.1528 57.8036 48.23 61.9324 53.1991 61.9324H70.3999C75.369 61.9324 79.4462 57.8036 79.4462 52.7716V49.5459H79.8285C80.8478 49.5459 81.7397 48.6428 81.7397 47.6106C81.4848 46.4493 80.5929 45.6752 79.5736 45.6752Z" fill="#124C5F"/>
<path d="M56.7666 23.2247L56.894 22.0635C56.894 21.6764 56.7666 21.4183 56.3843 21.4183C56.0021 21.4183 55.7473 21.5474 55.7473 21.9344L55.6199 23.0957C55.6199 23.4827 55.7473 23.7408 56.1295 23.7408C56.3843 23.7408 56.6392 23.4827 56.7666 23.2247Z" fill="#124C5F"/>
<path d="M55.2376 24.7729L55.1102 25.9342C55.1102 26.3213 55.2376 26.5793 55.6199 26.5793C56.0021 26.5793 56.2569 26.4503 56.2569 26.0632L56.3844 24.902C56.3844 24.5149 56.2569 24.2568 55.8747 24.2568C55.6199 24.2568 55.3651 24.5149 55.2376 24.7729Z" fill="#124C5F"/>
<path d="M59.5696 23.7407C59.9518 23.7407 60.2066 23.4826 60.2066 23.0955V21.8053C60.2066 21.4182 59.9518 21.1602 59.5696 21.1602C59.1873 21.1602 58.9325 21.4182 58.9325 21.8053V23.0955C58.9325 23.3536 59.3147 23.7407 59.5696 23.7407Z" fill="#124C5F"/>
<path d="M58.8052 26.0632C58.8052 26.4503 59.06 26.7083 59.4422 26.7083C59.8245 26.7083 60.0793 26.4503 60.0793 26.0632V24.7729C60.0793 24.3859 59.8245 24.1278 59.4422 24.1278C59.06 24.1278 58.8052 24.3859 58.8052 24.7729V26.0632Z" fill="#124C5F"/>
<path d="M63.0099 21.2893C62.6276 21.2893 62.3728 21.5474 62.3728 21.9344V23.2247C62.3728 23.6118 62.6276 23.8698 63.0099 23.8698C63.3921 23.8698 63.6469 23.6118 63.6469 23.2247V21.9344C63.6469 21.5474 63.3921 21.2893 63.0099 21.2893Z" fill="#124C5F"/>
<path d="M62.6277 24.902V26.1922C62.6277 26.5793 62.8825 26.8374 63.2647 26.8374C63.647 26.8374 63.9018 26.5793 63.9018 26.1922V24.902C63.9018 24.5149 63.647 24.2568 63.2647 24.2568C62.7551 24.2568 62.5003 24.5149 62.6277 24.902Z" fill="#124C5F"/>
<path d="M66.3225 21.2893C65.9403 21.2893 65.8129 21.6764 65.8129 21.9344L65.9403 23.0957C65.9403 23.3537 66.1951 23.6118 66.5773 23.6118C66.9596 23.6118 67.2144 23.2247 67.2144 22.8376L66.9596 21.8054C66.9596 21.4183 66.5773 21.1603 66.3225 21.2893Z" fill="#124C5F"/>
<path d="M66.1953 25.031L66.3227 26.1922C66.3227 26.4503 66.705 26.7083 66.9598 26.7083C67.342 26.7083 67.5969 26.3212 67.4694 26.0632V24.7729C67.4694 24.3859 67.0872 24.2568 66.8324 24.2568C66.4501 24.3859 66.1953 24.6439 66.1953 25.031Z" fill="#124C5F"/>
</svg>
