<svg width="193" height="51" viewBox="0 0 193 51" fill="none" xmlns="http://www.w3.org/2000/svg">
<path d="M57.125 21.6094V16.6094C58.1667 16.5365 58.8854 16.5 59.2812 16.5C60.4167 16.4688 61.4271 16.5052 62.3125 16.6094C62.3438 16.9115 62.3594 17.125 62.3594 17.25C62.4531 18.3021 62.5 18.9427 62.5 19.1719C62.5 19.9844 62.4427 20.7969 62.3281 21.6094H57.125ZM66.0469 12.4375L65.8281 12.375C65.849 12.375 65.651 12.3438 65.2344 12.2812C64.724 12.2083 64.2135 12.1406 63.7031 12.0781C62.026 11.8906 60.526 11.8073 59.2031 11.8281C57.8802 11.849 56.2552 11.9635 54.3281 12.1719C53.7344 12.2448 53.1406 12.3177 52.5469 12.3906C52.0573 12.4635 51.8177 12.5 51.8281 12.5L51.4219 12.5625L51 12.6406L51.6719 13.1562C52.0677 13.4688 52.3542 13.776 52.5312 14.0781C52.75 14.4531 52.8594 14.8802 52.8594 15.3594V34H57.125V25.6094H66.0781L66.1094 25.4219L66.125 25.3125C66.1771 25.0938 66.2396 24.75 66.3125 24.2812C66.6042 22.5625 66.75 20.9375 66.75 19.4062C66.75 16.6771 66.5365 14.4323 66.1094 12.6719L66.0469 12.4375ZM84.8906 33.125C84.9115 33.125 84.6979 33.1719 84.25 33.2656C83.7083 33.3802 83.151 33.4792 82.5781 33.5625C80.724 33.8542 78.9792 34 77.3438 34C74.5729 34 72.349 33.7708 70.6719 33.3125L70.4219 33.2188V14.4375C70.4219 13.3958 69.9792 12.5365 69.0938 11.8594H74.6875L74.6562 29.2656C75.1146 29.3385 76.0104 29.375 77.3438 29.375C78.6979 29.375 79.5781 29.3385 79.9844 29.2656V11.8594L84.3125 11.8281V30.4375C84.3125 31.3438 84.526 32.0365 84.9531 32.5156C85.1719 32.7448 85.3906 32.8906 85.6094 32.9531L84.8906 33.125ZM94.0938 21.6094V16.6094C95.1354 16.5365 95.8542 16.5 96.25 16.5C97.3854 16.4688 98.3958 16.5052 99.2812 16.6094C99.3125 16.9115 99.3281 17.125 99.3281 17.25C99.4219 18.3021 99.4688 18.9427 99.4688 19.1719C99.4688 19.9844 99.4115 20.7969 99.2969 21.6094H94.0938ZM103.016 12.4375L102.797 12.375C102.818 12.375 102.62 12.3438 102.203 12.2812C101.693 12.2083 101.182 12.1406 100.672 12.0781C98.9948 11.8906 97.4948 11.8073 96.1719 11.8281C94.849 11.849 93.224 11.9635 91.2969 12.1719C90.7031 12.2448 90.1094 12.3177 89.5156 12.3906C89.026 12.4635 88.7865 12.5 88.7969 12.5L88.3906 12.5625L87.9688 12.6406L88.6406 13.1562C89.0365 13.4688 89.3229 13.776 89.5 14.0781C89.7188 14.4531 89.8281 14.8802 89.8281 15.3594V34H94.0938V25.6094H103.047L103.078 25.4219L103.094 25.3125C103.146 25.0938 103.208 24.75 103.281 24.2812C103.573 22.5625 103.719 20.9375 103.719 19.4062C103.719 16.6771 103.505 14.4323 103.078 12.6719L103.016 12.4375Z" fill="#FFAA00"/>
<path d="M120.422 14.1875C120.401 13.7396 120.516 13.3281 120.766 12.9531C120.828 12.8594 120.995 12.6667 121.266 12.375L121.844 11.7344H116.234V21.0938H111.812V11.7344H106.062L106.828 12.4062C107.391 12.8958 107.661 13.4948 107.641 14.2031V31.5312C107.661 31.9792 107.562 32.3802 107.344 32.7344C107.302 32.7865 107.182 32.9219 106.984 33.1406L106.203 34H111.812V25.6094H116.234V34H121.984L121.266 33.3281C120.724 32.8385 120.443 32.2344 120.422 31.5156V14.1875ZM140.141 33.125C140.161 33.125 139.948 33.1719 139.5 33.2656C138.958 33.3802 138.401 33.4792 137.828 33.5625C135.974 33.8542 134.229 34 132.594 34C129.823 34 127.599 33.7708 125.922 33.3125L125.672 33.2188V14.4375C125.672 13.3958 125.229 12.5365 124.344 11.8594H129.938L129.906 29.2656C130.365 29.3385 131.26 29.375 132.594 29.375C133.948 29.375 134.828 29.3385 135.234 29.2656V11.8594L139.562 11.8281V30.4375C139.562 31.3438 139.776 32.0365 140.203 32.5156C140.422 32.7448 140.641 32.8906 140.859 32.9531L140.141 33.125ZM151.25 29.6562C150.375 29.6562 149.615 29.6146 148.969 29.5312V24.9688H153.828C154.089 25.5208 154.219 26.3021 154.219 27.3125C154.219 28.3333 154.083 29.0469 153.812 29.4531C153.073 29.5885 152.219 29.6562 151.25 29.6562ZM153.875 18.4375C153.875 19.4375 153.75 20.224 153.5 20.7969H148.969V16.25C149.833 16.1458 150.542 16.0885 151.094 16.0781H151.25C151.844 16.0781 152.583 16.1458 153.469 16.2812C153.74 16.6979 153.875 17.4167 153.875 18.4375ZM158.594 18.0625C158.594 16.3021 158.234 14.4583 157.516 12.5312L157.375 12.3125L157.156 12.2812C155.146 11.9167 153.25 11.7344 151.469 11.7344H151.188C149.344 11.7552 146.953 11.9688 144.016 12.375L143.234 12.4844L143.812 13.0312C144.469 13.6458 144.797 14.3594 144.797 15.1719V30.5469C144.797 31.401 144.474 32.1146 143.828 32.6875L143.219 33.2188L144.016 33.3438C146.411 33.75 148.802 33.9688 151.188 34H151.453C153.307 34 155.297 33.8229 157.422 33.4688L157.656 33.4219L157.719 33.2031C158.427 30.8177 158.781 28.7031 158.781 26.8594C158.781 25.7135 158.469 24.375 157.844 22.8438C158.344 21.2604 158.594 19.6667 158.594 18.0625Z" fill="#FFE55E"/>
<path d="M25.832 24.9261C25.4838 29.1109 28.9739 30.0797 31.8022 33.9805C36.0112 39.5772 40.178 38.5823 41.3611 35.065C42.4873 31.6845 39.38 28.7902 39.6763 25.0649C39.9726 21.3397 43.6973 18.3972 43.1736 14.9726C42.6499 11.5481 38.6287 10.5191 33.4122 16.0489C29.8778 19.8721 26.2988 20.7906 25.832 24.9261Z" fill="#FFE55E"/>
<path d="M19.786 13.6831C22.4141 16.0576 25.8326 16.1949 27.3911 14.1164C28.9496 12.0379 28.0702 8.46561 25.3853 6.22784C22.7572 3.85332 19.3387 3.71605 17.7802 5.79455C16.2785 7.7363 17.1579 11.3086 19.786 13.6831Z" fill="#FFAA00"/>
<path d="M11.8605 24.0122C15.4642 24.7075 18.9765 23.2802 19.7002 20.5342C20.367 17.9249 18.0279 15.1894 14.3056 14.4449C10.7018 13.7496 7.18955 15.1769 6.46589 17.9229C5.79905 20.5321 8.25674 23.3169 11.8605 24.0122Z" fill="#FFAA00"/>
<path d="M12.4659 36.6555C16.0697 37.3508 19.582 35.9235 20.3056 33.1775C20.9725 30.5683 18.6333 27.8327 14.911 27.0882C11.3073 26.3929 7.79502 27.8202 7.07136 30.5662C6.40452 33.1755 8.86221 35.9602 12.4659 36.6555Z" fill="#FFAA00"/>
</svg>
