<svg width="30" height="22" viewBox="0 0 30 22" fill="none" xmlns="http://www.w3.org/2000/svg">
<path d="M29.979 0.897C29.972 0.829 29.96 0.764 29.939 0.698C29.918 0.633 29.891 0.574 29.857 0.515C29.839 0.484 29.835 0.448 29.814 0.418C29.798 0.395 29.773 0.384 29.755 0.363C29.71 0.31 29.66 0.266 29.606 0.224C29.556 0.185 29.508 0.149 29.452 0.12C29.397 0.0919999 29.34 0.0740002 29.28 0.0560002C29.213 0.0360002 29.147 0.0209999 29.077 0.0149999C29.05 0.0129999 29.027 0 29 0H1C0.973 0 0.95 0.0129998 0.923 0.0159998C0.853 0.0209998 0.787 0.0370002 0.719 0.0570002C0.66 0.0750002 0.603 0.0919999 0.549 0.12C0.492 0.149 0.444 0.186 0.393 0.226C0.339 0.268 0.29 0.311 0.245 0.364C0.227 0.385 0.202 0.396 0.186 0.419C0.165 0.449 0.16 0.484 0.143 0.516C0.109 0.574 0.082 0.633 0.061 0.699C0.04 0.765 0.028 0.829 0.021 0.897C0.017 0.933 0 0.964 0 1V21C0 21.552 0.448 22 1 22H29C29.552 22 30 21.552 30 21V1C30 0.964 29.983 0.933 29.979 0.897ZM25.879 2L15 9.771L4.121 2H25.879ZM2 20V2.943L14.419 11.814C14.593 11.938 14.796 12 15 12C15.204 12 15.407 11.938 15.581 11.814L28 2.943V20H2Z" fill="#D2CFCF"/>
</svg>
