<svg width="29" height="36" viewBox="0 0 29 36" fill="none" xmlns="http://www.w3.org/2000/svg">
<g clip-path="url(#clip0_27_1489)">
<path d="M24.1667 0H4.83333C3.55145 0 2.32208 0.505713 1.41565 1.40589C0.509225 2.30606 0 3.52696 0 4.8L0 24C0 25.273 0.509225 26.4939 1.41565 27.3941C2.32208 28.2943 3.55145 28.8 4.83333 28.8H24.1667C25.4485 28.8 26.6779 28.2943 27.5843 27.3941C28.4908 26.4939 29 25.273 29 24V4.8C29 3.52696 28.4908 2.30606 27.5843 1.40589C26.6779 0.505713 25.4485 0 24.1667 0V0ZM26.5833 24C26.5833 24.6365 26.3287 25.247 25.8755 25.6971C25.4223 26.1471 24.8076 26.4 24.1667 26.4H4.83333C4.19239 26.4 3.5777 26.1471 3.12449 25.6971C2.67128 25.247 2.41667 24.6365 2.41667 24V4.8C2.41667 4.16348 2.67128 3.55303 3.12449 3.10294C3.5777 2.65286 4.19239 2.4 4.83333 2.4H24.1667C24.8076 2.4 25.4223 2.65286 25.8755 3.10294C26.3287 3.55303 26.5833 4.16348 26.5833 4.8V24Z" fill="#5B5B5B"/>
<path d="M14.5 7.19995C13.0661 7.19995 11.6644 7.62222 10.4721 8.41337C9.27986 9.20452 8.35061 10.329 7.80188 11.6446C7.25314 12.9603 7.10957 14.4079 7.38931 15.8046C7.66905 17.2013 8.35955 18.4842 9.37348 19.4911C10.3874 20.4981 11.6792 21.1838 13.0856 21.4616C14.492 21.7394 15.9497 21.5968 17.2745 21.0519C18.5992 20.5069 19.7315 19.5841 20.5282 18.4001C21.3248 17.216 21.75 15.824 21.75 14.4C21.75 12.4904 20.9862 10.659 19.6265 9.30878C18.2669 7.95852 16.4228 7.19995 14.5 7.19995ZM14.5 19.1999C13.5441 19.1999 12.6096 18.9184 11.8147 18.391C11.0199 17.8636 10.4004 17.1139 10.0346 16.2368C9.66876 15.3597 9.57305 14.3946 9.75954 13.4635C9.94604 12.5324 10.4064 11.6771 11.0823 11.0058C11.7583 10.3345 12.6195 9.87739 13.5571 9.69218C14.4946 9.50697 15.4665 9.60203 16.3496 9.96533C17.2328 10.3286 17.9877 10.9439 18.5188 11.7332C19.0499 12.5226 19.3333 13.4506 19.3333 14.4C19.3333 15.673 18.8241 16.8939 17.9177 17.7941C17.0113 18.6942 15.7819 19.1999 14.5 19.1999Z" fill="#5B5B5B"/>
<path d="M22.3541 8.40005C23.3551 8.40005 24.1666 7.59416 24.1666 6.60005C24.1666 5.60594 23.3551 4.80005 22.3541 4.80005C21.3531 4.80005 20.5416 5.60594 20.5416 6.60005C20.5416 7.59416 21.3531 8.40005 22.3541 8.40005Z" fill="#5B5B5B"/>
</g>
<defs>
<clipPath id="clip0_27_1489">
<rect width="29" height="36" fill="white"/>
</clipPath>
</defs>
</svg>
