<svg width="83" height="86" viewBox="0 0 83 86" fill="none" xmlns="http://www.w3.org/2000/svg">
<path d="M41.0927 41.0603C37.7749 35.4276 31.8755 37.0666 24.1937 34.6038C13.0018 31.0706 7.67374 36.026 9.08001 41.464C10.349 46.7861 17.7699 47.8477 20.2885 53.0427C23.1696 58.0709 20.1761 64.9951 24.0953 69.0091C27.8773 72.9073 34.7516 70.9095 37.6626 59.1913C39.5576 51.3405 44.1853 46.9756 41.0927 41.0603Z" fill="#FF6E9F"/>
<path d="M37.761 24.7861C35.2811 30.4899 30.2798 33.5949 26.7203 32.0104C23.1609 30.4258 22.3176 24.2816 24.9349 18.6936C27.4149 12.9898 32.2788 9.76893 35.9756 11.4693C39.6723 13.1696 40.241 19.0823 37.761 24.7861Z" fill="#FF6E9F"/>
<path d="M52.9384 52.7041C46.9291 51.8882 41.7658 54.6203 41.2743 58.6939C40.7827 62.7676 45.3145 66.5894 51.299 67.1483C57.3082 67.9642 62.4715 65.2321 62.9631 61.1584C63.4546 57.0848 58.9229 53.263 52.9384 52.7041Z" fill="#FF6E9F"/>
<path d="M55.2725 31.0504C50.3701 35.1837 44.2593 35.9357 41.5513 32.707C38.8432 29.4782 40.7739 23.3112 45.6763 19.1779C50.5786 15.0446 56.6894 14.2926 59.3975 17.5213C62.1055 20.75 60.1748 26.9171 55.2725 31.0504Z" fill="#FF6E9F"/>
<path d="M56.8189 34.0081C50.7191 36.1866 47.0279 41.1051 48.4231 45.1165C49.8184 49.1278 55.7645 50.5992 61.8643 48.4206C67.9642 46.2421 71.6553 41.3236 70.2601 37.3122C68.8648 33.3009 62.9187 31.8295 56.8189 34.0081Z" fill="#FF6E9F"/>
</svg>
