<svg width="95" height="101" viewBox="0 0 95 101" fill="none" xmlns="http://www.w3.org/2000/svg">
<path d="M45.6009 48.8415C50.6104 56.1771 57.4603 52.9918 67.1541 55.5176C81.3035 58.935 86.6207 51.6052 83.8292 44.2219C81.129 37.1405 72.3288 36.6461 67.8476 30.1346C63.3665 23.6231 65.3896 13.7059 60.0015 8.80888C54.6134 3.9119 46.8371 7.7248 45.8768 23.9233C45.328 35.0241 40.8458 41.4245 45.6009 48.8415Z" fill="#FFAA00"/>
<path d="M53.0296 70.6322C54.8372 62.7703 60.1935 57.4144 64.6685 59.293C69.1435 61.1715 71.5174 69.0195 69.5467 77.2647C67.739 85.1266 62.3828 90.4825 57.9077 88.604C53.4327 86.7254 51.3132 78.796 53.0296 70.6322Z" fill="#FFAA00"/>
<path d="M29.1104 34.9174C36.4559 35.2152 42.0861 30.7648 41.806 25.2264C41.5259 19.6879 35.3746 15.0352 28.1204 15.0393C20.7749 14.7415 15.1447 19.1918 15.4248 24.7303C15.6136 29.9669 21.7649 34.6197 29.1104 34.9174Z" fill="#FFAA00"/>
<path d="M30.8044 64.5023C35.8867 58.2409 43.1019 56.2629 46.8527 60.3596C50.6034 64.4563 49.5785 73.061 44.4962 79.3224C39.4138 85.5838 32.1986 87.5618 28.4479 83.465C24.9516 79.2869 25.8133 71.0655 30.8044 64.5023Z" fill="#FFAA00"/>
<path d="M28.2539 60.6837C34.9212 56.8947 38.6206 49.7516 36.1225 44.2608C33.7158 39.0718 26.3508 37.787 19.429 41.6575C12.7616 45.4466 9.06219 52.5897 11.5603 58.0805C13.9671 63.2695 21.5865 64.4728 28.2539 60.6837Z" fill="#FFAA00"/>
</svg>
