<svg width="37" height="38" viewBox="0 0 37 38" fill="none" xmlns="http://www.w3.org/2000/svg">
<path d="M17.6818 18.5275C14.5676 17.2449 12.6374 19.7418 8.69085 21.0849C2.97702 23.0913 2.23922 26.7749 4.42983 28.5882C6.62044 30.4016 9.96076 28.5149 12.643 29.9135C15.3652 31.1131 16.2352 34.9298 19.0189 35.3121C21.7827 35.794 24.0285 32.7413 21.6938 27.0575C20.098 23.2946 20.6381 20.088 17.6818 18.5275Z" fill="#FFF1A6"/>
<path d="M10.9623 12.2713C11.4674 15.5769 10.3651 18.6523 8.51607 19.1428C6.57376 19.6136 4.60146 17.3206 4.09641 14.015C3.59136 10.7093 4.69366 7.63396 6.54266 7.1434C8.48496 6.6726 10.4573 8.96561 10.9623 12.2713Z" fill="#FFF1A6"/>
<path d="M26.0972 19.3519C23.3317 20.9622 21.9678 23.7062 22.9357 25.4801C23.9037 27.254 26.9133 27.4734 29.6788 25.8631C32.4442 24.2528 33.8081 21.5088 32.8402 19.7349C31.7746 17.9403 28.7649 17.7209 26.0972 19.3519Z" fill="#FFF1A6"/>
<path d="M20.4338 9.80218C19.6417 13.2522 17.2525 15.5963 15.2381 15.0598C13.2237 14.5233 12.2627 11.25 13.0548 7.79998C13.8469 4.34999 16.2361 2.00588 18.2505 2.54237C20.2649 3.07886 21.2258 6.35219 20.4338 9.80218Z" fill="#FFF1A6"/>
<path d="M22.1015 10.4572C20.2784 13.1771 20.2475 16.2769 21.8858 17.4256C23.6184 18.5944 26.4176 17.3839 28.2215 14.7601C30.0446 12.0402 30.0755 8.94046 28.4372 7.79168C26.8182 6.54677 23.9247 7.73726 22.1015 10.4572Z" fill="#FFF1A6"/>
</svg>
