<svg width="65" height="72" viewBox="0 0 65 72" fill="none" xmlns="http://www.w3.org/2000/svg">
<path d="M13.0295 57.2247L15.442 48.563L14.5647 46.0089C12.7005 45.6758 11.1653 44.6763 10.1784 43.3438L6.88859 55.0037L0.418678 66.6637C-0.458597 68.2184 0.0897 70.2173 1.62493 71.1056C3.16016 71.994 5.13403 71.4388 6.01131 69.8841L12.8102 57.891C12.9199 57.6689 13.0295 57.4468 13.0295 57.2247Z" fill="#124C5F"/>
<path d="M2.06368 33.3496C3.05062 33.9049 4.36653 33.4607 4.91483 32.3502L9.8495 22.1338L10.7268 21.4675L11.1654 18.6914C11.3847 17.2477 12.0427 15.9152 12.92 14.8047L6.99836 18.6914C6.66938 18.9134 6.45006 19.2466 6.23074 19.5797L1.07675 30.3513C0.52845 31.4618 0.967087 32.7944 2.06368 33.3496Z" fill="#124C5F"/>
<path d="M20.4862 12.4727C23.7567 12.4727 26.4079 9.78799 26.4079 6.47618C26.4079 3.16437 23.7567 0.479614 20.4862 0.479614C17.2158 0.479614 14.5646 3.16437 14.5646 6.47618C14.5646 9.78799 17.2158 12.4727 20.4862 12.4727Z" fill="#124C5F"/>
<path d="M59.0866 57.2247C59.0866 57.2247 59.1962 57.3357 59.1962 57.4468C60.0735 56.8916 60.4025 55.67 60.4025 55.67C63.6923 56.6695 64.3502 53.5601 64.3502 53.5601C64.7889 52.6718 62.5957 51.7834 62.5957 51.7834C62.486 49.5624 59.9638 48.8961 59.9638 48.8961C58.7576 47.7857 59.0866 48.8961 59.0866 48.8961C57.8803 48.7851 57.1127 49.2293 57.1127 49.2293C55.1388 47.3415 53.9326 50.2287 53.9326 50.2287C53.6036 50.2287 53.3843 50.3398 53.0553 50.3398C55.0292 53.0049 57.1127 55.3369 59.0866 57.2247Z" fill="#124C5F"/>
<path d="M61.828 63.9987C61.2797 63.4435 57.3319 61.0004 57.3319 61.0004C58.2092 60.5562 58.3189 58.6684 58.3189 58.0022C56.2353 56.0033 54.0421 53.4492 51.849 50.562C50.7524 50.7841 43.5148 53.8934 36.4966 50.673C33.8648 49.4515 31.562 51.2283 31.562 51.2283C29.5881 53.5603 30.4654 57.3359 30.4654 57.3359L33.2068 54.3376C34.6324 53.2271 35.1807 53.4492 35.5097 54.0044C35.729 54.4486 35.6194 55.0039 35.2904 55.4481C32.6586 58.2243 33.5358 61.1115 33.5358 61.1115L29.8074 64.4429C28.3818 65.9976 30.0267 67.2191 30.0267 67.2191C30.3557 65.9976 32.9875 64.1098 32.9875 64.1098C32.8779 65.5534 33.5358 65.8865 33.5358 65.8865C35.4 65.3313 34.9614 63.4435 34.9614 63.4435C37.9222 63.3324 38.2512 61.9999 38.2512 61.9999C41.212 62.5551 42.6376 60.5562 42.6376 60.5562C43.4052 61.9999 50.0944 63.5545 50.0944 63.5545C50.533 63.7766 53.0552 68.8848 53.0552 68.8848C53.6035 68.9959 54.1518 69.7732 54.1518 69.7732C55.3581 70.5505 57.8802 69.6621 57.8802 69.6621C57.6609 68.6627 56.345 68.6627 56.345 68.6627C53.3842 68.6627 53.8228 63.6656 53.8228 63.6656C53.9325 62.9993 56.2353 64.2208 56.2353 64.2208L61.2797 66.1086C63.8018 67.4412 64.8984 65.8865 64.8984 65.8865C65.666 64.665 61.828 63.9987 61.828 63.9987Z" fill="#124C5F"/>
<path d="M37.0448 24.4658C39.567 30.1292 44.9403 41.345 51.8488 50.4509C52.1778 50.3399 52.6164 50.3399 53.0551 50.2288C52.9454 50.1178 52.8358 50.0067 52.7261 49.7846C45.8176 40.7898 40.4442 29.574 38.0317 24.0216C37.5931 24.3547 37.1545 24.4658 37.0448 24.4658Z" fill="#124C5F"/>
<path d="M36.9352 23.3553C38.0318 22.9111 38.6898 21.6896 38.2512 20.5791C37.8125 19.4687 36.6063 18.8024 35.5097 19.2466L29.5881 21.3565C22.6795 14.8047 22.3505 13.6942 19.6091 13.25C16.0999 12.6948 12.8102 15.2489 12.2619 18.8024L9.63004 37.4584C9.08174 41.0119 11.6039 44.3433 15.113 44.8986C15.2227 44.8986 15.3323 44.8986 15.442 44.8986L18.2931 53.5603L12.4812 62.222C11.4943 63.6656 11.8232 65.7755 13.3585 66.7749C14.784 67.7744 16.8676 67.4412 17.8545 65.8865L24.6534 55.8923C25.2017 55.0039 25.421 54.0045 25.092 53.005L21.4733 42.0113C22.0216 41.234 22.4602 40.2346 22.5699 39.2351L24.9824 22.689L27.7239 25.3542C28.2721 25.9094 29.1494 26.1315 29.917 25.7984L36.9352 23.3553Z" fill="#124C5F"/>
</svg>
