<svg width="55" height="52" viewBox="0 0 55 52" fill="none" xmlns="http://www.w3.org/2000/svg">
<path d="M39.2031 25.2192C39.1707 25.5329 38.9653 25.8759 38.4915 26.2245C33.8454 29.6429 29.1994 33.0612 24.5533 36.4795C23.5614 37.2093 21.2077 37.3792 21.2077 35.6621C21.2077 29.3369 21.2077 23.0117 21.2077 16.6865C21.2077 15.1327 23.734 14.7498 24.7451 15.3824C29.3911 18.2893 34.0372 21.1962 38.6832 24.103C39.2152 24.4359 39.332 24.8349 39.2031 25.2192ZM54.9999 30.6107C53.5276 63.3484 -5.96613 56.5663 0.489601 22.1041C3.19833 7.64391 16.1474 0.0391458 30.375 0.95552C46.39 1.98707 54.7086 15.4955 54.9986 30.3941C54.9993 30.4316 54.9729 30.4628 54.9676 30.499C54.9735 30.5395 55.0019 30.5654 54.9999 30.6107ZM52.0145 31.0344C51.7728 20.4885 47.7398 9.09901 37.3337 4.56613C23.5417 -1.44157 7.29212 5.644 3.78721 20.2453C0.652332 33.3049 7.62377 44.8837 20.3796 49.0718C33.9773 53.5364 51.2715 46.511 52.0145 31.0344Z" fill="white"/>
</svg>
